<svg xmlns="http://www.w3.org/2000/svg" version="1.1" xmlns:xlink="http://www.w3.org/1999/xlink" xmlns:svgjs="http://svgjs.dev/svgjs" viewBox="0 0 25.08923057348248 21.132122245807295"><g transform="matrix(0.8458295483241287,0,0,0.8458295483241287,3.5629834206098554,15.393862698775614)"><g transform="matrix(1,0,0,1,0,0)" clip-path="url(#SvgjsClipPath32596)"><g clip-path="url(#SvgjsClipPath325940ea1c7fe-5685-411f-acc5-4726dec39911)"><path d=" M 5.118988570798177 -12.298531648691942 C 4.921720542089507 -12.298925300261052 4.7551827298596505 -12.445222685689664 4.72937230112661 -12.640795311281229 L 4.725692046690176 -12.668765244998234 C 4.684959705012082 -12.976747843267496 4.4229782714602885 -13.20729150479308 4.112316307282799 -13.208535895676722 C 3.801654343105309 -13.20729150479308 3.5396729095535164 -12.976747843267496 3.4989405678754295 -12.668765244998234 L 3.4952603134389877 -12.641040661577 C 3.470012241178265 -12.444981275391862 3.303321869149137 -12.298025028011033 3.105644043767429 -12.297550247508859 L 3.0156004852224267 -12.297550247508859 C 2.9114869744650695 -12.297550247508859 2.8116376820519116 -12.338909178619751 2.738018312582252 -12.412528548089428 C 2.664398943112592 -12.486147917559103 2.6230400120017068 -12.585997209972245 2.6230400120017068 -12.690110720729587 L 2.6230400120017068 -14.004697605427479 C 2.623979508155617 -14.193063075748377 2.7764475036785785 -14.345531071271322 2.9648129739994844 -14.346470567425257 L 5.172965635866035 -14.346470567425257 C 5.361665551995547 -14.346335250115184 5.5146032805537635 -14.193397521556983 5.514738597863836 -14.004697605427479 L 5.514738597863836 -12.690110720729587 C 5.514480803246878 -12.585612427255683 5.472569181011346 -12.485529574846211 5.398287097979842 -12.412030377996691 C 5.324005014948345 -12.338531181147205 5.223483730346234 -12.297682279487919 5.118988570798169 -12.298531648691942 Z M 4.1113349060997395 -13.543929749984652 C 4.591009728687204 -13.543374999738202 4.996151319605804 -13.187748383162857 5.058877748336241 -12.712192247348284 L 5.06255800277269 -12.683976963335542 C 5.066478459467626 -12.655825235561606 5.090565181707036 -12.63488025970124 5.118988570798169 -12.634906904182923 C 5.150425319396355 -12.634906904182923 5.175909839415156 -12.660391424201732 5.175909839415164 -12.691828172799918 L 5.175909839415164 -14.006415057497778 L 2.9626048213376115 -14.012303464596117 L 2.9569617645350594 -14.006415057497778 L 2.9569617645350594 -12.691828172799918 C 2.956961765003512 -12.660391423353529 2.9824462854020712 -12.634906903714478 3.013883034000266 -12.634906904182923 L 3.103926591697066 -12.634906904182923 C 3.1323499807881907 -12.63488025970124 3.1564367030276004 -12.655825235561606 3.160357159722536 -12.683976963335542 L 3.1640374141589858 -12.711701546756743 C 3.226526835943669 -13.187360006940843 3.6315897715591077 -13.543219493500663 4.1113349060997395 -13.543929749984652 Z" fill="#fffcf7" transform="matrix(1,0,0,1,0,0)" fill-rule="nonzero"></path></g><g clip-path="url(#SvgjsClipPath325940ea1c7fe-5685-411f-acc5-4726dec39911)"><path d=" M 10.904103194592755 -0.5202453502958004 L 5.417579880741681 -0.5202453502958004 C 5.232267544393064 -0.5203806642136062 5.082075990055763 -0.670572218550916 5.0819406761379655 -0.8558845548995322 L 5.0819406761379655 -8.568225751912056 C 5.082076109355165 -8.753498343566752 5.232307239586497 -8.90361965572044 5.417579880741641 -8.903619606220017 L 10.904103194592755 -8.903619606220017 C 11.089319856796234 -8.903484510366816 11.239471861597004 -8.753442265803503 11.239742399196468 -8.568225751912056 L 11.239742399196468 -0.8558845548995322 C 11.239607085278665 -0.670572218550916 11.089415530941364 -0.5203806642136062 10.904103194592746 -0.5202453502958004 Z M 5.417579880741681 -8.567735051320515 L 5.417579880741681 -0.8558845548995002 L 10.904103194592755 -0.8558845548995002 L 10.904103194592755 -8.567489701024776 Z" fill="#fffcf7" transform="matrix(1,0,0,1,0,0)" fill-rule="nonzero"></path></g><g clip-path="url(#SvgjsClipPath325940ea1c7fe-5685-411f-acc5-4726dec39911)"><path d=" M 10.423707315488898 -6.828446804656947 L 5.89895716102859 -6.828446804656947 L 5.89895716102859 -8.086357771033581 L 10.423216614897376 -8.086357771033581 Z M 6.235577766815353 -7.164576709852188 L 10.087577410293656 -7.164576709852188 L 10.087577410293656 -7.75022786583834 L 6.235577766815353 -7.75022786583834 Z" fill="#fffcf7" transform="matrix(1,0,0,1,0,0)" fill-rule="nonzero"></path></g><g clip-path="url(#SvgjsClipPath325940ea1c7fe-5685-411f-acc5-4726dec39911)"><path d=" M 10.423707315488898 -1.3905028493669622 L 5.89895716102859 -1.3905028493669622 L 5.89895716102859 -5.735901937624535 L 10.423216614897376 -5.735901937624535 Z M 6.235577766815353 -1.726632754562205 L 10.087577410293656 -1.726632754562205 L 10.087577410293656 -5.400017382725062 L 6.235577766815353 -5.400017382725062 Z" fill="#fffcf7" transform="matrix(1,0,0,1,0,0)" fill-rule="nonzero"></path></g><g clip-path="url(#SvgjsClipPath325940ea1c7fe-5685-411f-acc5-4726dec39911)"><path d=" M 6.950528528668588 -4.5785845925107065 L 7.286658433863829 -4.5785845925107065 L 7.286658433863829 -1.5585678019645641 L 6.950528528668588 -1.5585678019645641 Z" fill="#fffcf7" transform="matrix(1,0,0,1,0,0)" fill-rule="nonzero"></path></g><g clip-path="url(#SvgjsClipPath325940ea1c7fe-5685-411f-acc5-4726dec39911)"><path d=" M 7.993512635956885 -5.567836985026917 L 8.329642541152126 -5.567836985026917 L 8.329642541152126 -1.5308432185433496 L 7.993512635956885 -1.5308432185433496 Z" fill="#fffcf7" transform="matrix(1,0,0,1,0,0)" fill-rule="nonzero"></path></g><g clip-path="url(#SvgjsClipPath325940ea1c7fe-5685-411f-acc5-4726dec39911)"><path d=" M 9.036742093540946 -5.540112401605702 L 9.372871998736187 -5.540112401605702 L 9.372871998736187 -1.5031186351221368 L 9.036742093540946 -1.5031186351221368 Z" fill="#fffcf7" transform="matrix(1,0,0,1,0,0)" fill-rule="nonzero"></path></g><g clip-path="url(#SvgjsClipPath325940ea1c7fe-5685-411f-acc5-4726dec39911)"><path d=" M 6.067512814217734 -4.76038916167105 L 10.255642362891276 -4.76038916167105 L 10.255642362891276 -4.4242592564758105 L 6.067512814217734 -4.4242592564758105 Z" fill="#fffcf7" transform="matrix(1,0,0,1,0,0)" fill-rule="nonzero"></path></g><g clip-path="url(#SvgjsClipPath325940ea1c7fe-5685-411f-acc5-4726dec39911)"><path d=" M 6.067512814217734 -3.717405054382752 L 10.255642362891276 -3.717405054382752 L 10.255642362891276 -3.3812751491875126 L 6.067512814217734 -3.3812751491875126 Z" fill="#fffcf7" transform="matrix(1,0,0,1,0,0)" fill-rule="nonzero"></path></g><g clip-path="url(#SvgjsClipPath325940ea1c7fe-5685-411f-acc5-4726dec39911)"><path d=" M 6.067512814217734 -2.6744209470944558 L 10.255642362891276 -2.6744209470944558 L 10.255642362891276 -2.3382910418992164 L 6.067512814217734 -2.3382910418992164 Z" fill="#fffcf7" transform="matrix(1,0,0,1,0,0)" fill-rule="nonzero"></path></g><g clip-path="url(#SvgjsClipPath325940ea1c7fe-5685-411f-acc5-4726dec39911)"><path d=" M 8.329642541152127 -8.735554653622353 L 7.993512635956885 -8.735554653622353 L 7.993512635956885 -13.267174616364025 L 5.343974792012797 -13.267174616364025 L 5.343974792012797 -13.603304521559267 L 8.329642541152127 -13.603304521559267 L 8.329642541152127 -8.735554653622353 Z" fill="#fffcf7" transform="matrix(1,0,0,1,0,0)" fill-rule="nonzero"></path></g><g clip-path="url(#SvgjsClipPath325940ea1c7fe-5685-411f-acc5-4726dec39911)"><path d=" M 5.250741679622877 -2.295600090436464 L 0 -2.295600090436464 L 0 -13.603304521559267 L 2.788896811937444 -13.603304521559267 L 2.788896811937444 -13.267174616364025 L 0.3361299051952405 -13.267174616364025 L 0.3361299051952405 -2.6317299956317033 L 5.250741679622877 -2.6317299956317033 L 5.250741679622877 -2.295600090436464 Z" fill="#fffcf7" transform="matrix(1,0,0,1,0,0)" fill-rule="nonzero"></path></g><g clip-path="url(#SvgjsClipPath325940ea1c7fe-5685-411f-acc5-4726dec39911)"><path d=" M 5.948027220181177 -11.020011257471202 L 2.1423987826020707 -11.020011257471202 C 2.0495790723013774 -11.020011257471202 1.974333830004458 -11.09525649976809 1.97433383000445 -11.188076210068807 C 1.97433383000445 -11.280895920369492 2.0495790723013694 -11.356141162666411 2.1423987826020627 -11.356141162666411 L 5.948027220181177 -11.356141162666411 C 6.040751100787164 -11.356005799192882 6.115846921288532 -11.280800189480265 6.115846822483027 -11.188076210068807 C 6.115911955623594 -11.143525189551594 6.0982597704819375 -11.100776558864641 6.066780427718528 -11.069251193670313 C 6.035301084955125 -11.03772582847592 5.992578288310368 -11.02001120985925 5.948027220181185 -11.020011257471202 Z" fill="#fffcf7" transform="matrix(1,0,0,1,0,0)" fill-rule="nonzero"></path></g><g clip-path="url(#SvgjsClipPath325940ea1c7fe-5685-411f-acc5-4726dec39911)"><path d=" M 5.990227471052406 -10.026097209335472 L 2.1848443837690628 -10.026097209335472 C 2.0920246734683694 -10.026097209335472 2.01677943117145 -10.10134245163239 2.016779431171442 -10.194162161933077 C 2.016779431171442 -10.286981872233795 2.0920246734683614 -10.362227114530683 2.1848443837690468 -10.362227114530683 L 5.990227471052406 -10.362227114530683 C 6.083047181353104 -10.362227114530683 6.158292423650019 -10.286981872233795 6.158292423650027 -10.194162161933077 C 6.158292423650027 -10.10134245163239 6.083047181353115 -10.026097209335472 5.990227471052418 -10.026097209335472 Z" fill="#fffcf7" transform="matrix(1,0,0,1,0,0)" fill-rule="nonzero"></path></g></g><g><path d=" M 0.2793735 1.21156875 Q 0.172674 1.1394855000000002 0.1181025 1.0071292500000002 Q 0.063531 0.8747730000000001 0.063531 0.6955830000000001 Q 0.063531 0.5180220000000001 0.11769525 0.38566575000000014 Q 0.1718595 0.2533095000000001 0.27733725 0.18122625000000014 Q 0.382815 0.10914299999999999 0.532683 0.10914299999999999 Q 0.6882525 0.10914299999999999 0.794952 0.18204075000000008 Q 0.9016515 0.2549385000000002 0.95500125 0.38688750000000005 Q 1.008351 0.5188365000000001 1.008351 0.6955830000000001 Q 1.008351 0.8747730000000001 0.95337225 1.0071292500000002 Q 0.8983935000000001 1.1394855000000002 0.7925085000000001 1.21156875 Q 0.6866235 1.283652 0.53757 1.283652 Q 0.386073 1.283652 0.2793735 1.21156875 M 0.66748275 1.0629225 Q 0.724905 1.016496 0.7582995 0.9220140000000001 Q 0.791694 0.8275320000000002 0.791694 0.6906960000000001 Q 0.791694 0.4895145000000001 0.72368325 0.38403675000000015 Q 0.6556725 0.2785590000000001 0.532683 0.2785590000000001 Q 0.4129515 0.2785590000000001 0.34738425 0.38403675000000015 Q 0.281817 0.4895145000000001 0.281817 0.6923250000000001 Q 0.281817 0.8307900000000001 0.31317525 0.9240502500000001 Q 0.3445335 1.0173105000000002 0.40195575 1.06332975 Q 0.459378 1.1093490000000001 0.53757 1.1093490000000001 Q 0.6100605 1.1093490000000001 0.66748275 1.0629225 M 1.8070008618164062 0.5102842500000001 Q 1.8684956118164062 0.5872545000000001 1.8684956118164062 0.7281630000000001 L 1.8684956118164062 1.2641040000000001 L 1.6599836118164062 1.2641040000000001 L 1.6599836118164062 0.7460820000000001 Q 1.6599836118164062 0.6768495000000001 1.6306616118164063 0.6357172500000001 Q 1.6013396118164063 0.5945850000000001 1.5443246118164062 0.5945850000000001 Q 1.5060431118164064 0.5945850000000001 1.4730558618164062 0.6141330000000002 Q 1.440068611816406 0.6336810000000002 1.4205206118164062 0.6682972500000001 Q 1.4009726118164063 0.7029135000000001 1.4009726118164063 0.7460820000000001 L 1.4009726118164063 1.2641040000000001 L 1.1924606118164063 1.2641040000000001 L 1.1924606118164063 0.4528620000000001 L 1.3814246118164062 0.4528620000000001 L 1.3854971118164063 0.5595615000000002 Q 1.4693906118164062 0.4333140000000001 1.6241456118164064 0.4333140000000001 Q 1.7455061118164061 0.4333140000000001 1.8070008618164062 0.5102842500000001 M 3.0992432915039063 0.2683777500000001 Q 3.232006791503906 0.40806450000000005 3.232006791503906 0.6825510000000001 Q 3.232006791503906 0.8609265000000001 3.172141041503906 0.9916537500000001 Q 3.1122752915039062 1.122381 2.9962090415039064 1.1932425000000002 Q 2.880142791503906 1.2641040000000001 2.7156137915039062 1.2641040000000001 L 2.4240227915039063 1.2641040000000001 L 2.4240227915039063 0.1286910000000001 L 2.717242791503906 0.1286910000000001 Q 2.9664797915039065 0.1286910000000001 3.0992432915039063 0.2683777500000001 M 2.8923602915039064 1.029528 Q 2.9615927915039064 0.9741420000000001 2.990914791503906 0.88495425 Q 3.020236791503906 0.7957665 3.020236791503906 0.6874380000000001 Q 3.020236791503906 0.5147640000000001 2.9473390415039065 0.4031775000000001 Q 2.8744412915039064 0.29159100000000016 2.710726791503906 0.29159100000000016 L 2.634163791503906 0.29159100000000016 L 2.634163791503906 1.0849140000000002 L 2.710726791503906 1.0849140000000002 Q 2.8231277915039064 1.0849140000000002 2.8923602915039064 1.029528 M 3.5138150419921876 1.22948775 Q 3.4282925419921875 1.1736945 3.3887892919921874 1.080027 Q 3.3492860419921873 0.9863595000000001 3.3492860419921873 0.8682570000000001 Q 3.3492860419921873 0.7477110000000001 3.3936762919921875 0.64874925 Q 3.438066541992187 0.5497875000000001 3.5235890419921874 0.49155075000000015 Q 3.6091115419921875 0.4333140000000001 3.7272140419921875 0.4333140000000001 Q 3.9031460419921875 0.4333140000000001 3.9788945419921875 0.5347192500000001 Q 4.054643041992187 0.6361245000000001 4.054643041992187 0.8373060000000001 Q 4.054643041992187 0.8764020000000001 4.051385041992187 0.9252720000000001 L 3.5626850419921876 0.9252720000000001 Q 3.5675720419921872 1.0238265000000002 3.6176637919921872 1.0771762500000002 Q 3.6677555419921872 1.1305260000000001 3.7646810419921874 1.1305260000000001 Q 3.8151800419921873 1.1305260000000001 3.8730095419921873 1.1081272500000001 Q 3.9308390419921873 1.0857285 3.9585320419921874 1.0539630000000002 L 4.023692041992187 1.2087180000000002 Q 3.9088475419921873 1.2852810000000001 3.7304720419921873 1.2852810000000001 Q 3.5993375419921874 1.2852810000000001 3.5138150419921876 1.22948775 M 3.8477600419921876 0.7982100000000001 Q 3.8477600419921876 0.6784785000000001 3.8180307919921876 0.6332737500000001 Q 3.7883015419921873 0.5880690000000001 3.7321010419921876 0.5880690000000001 Q 3.6530945419921874 0.5880690000000001 3.6095187919921874 0.6467130000000001 Q 3.5659430419921874 0.7053570000000001 3.5610560419921873 0.7982100000000001 L 3.8477600419921876 0.7982100000000001 M 5.330527861816407 0.5102842500000001 Q 5.392022611816406 0.5872545000000001 5.392022611816406 0.7281630000000001 L 5.392022611816406 1.2641040000000001 L 5.185139611816407 1.2641040000000001 L 5.185139611816407 0.7493400000000001 Q 5.185139611816407 0.6784785000000001 5.157853861816406 0.63816075 Q 5.130568111816406 0.5978430000000001 5.074367611816406 0.5978430000000001 Q 5.036086111816406 0.5978430000000001 5.001469861816406 0.6173910000000001 Q 4.966853611816406 0.6369390000000001 4.945676611816406 0.6715552500000002 Q 4.924499611816406 0.7061715000000001 4.924499611816406 0.7493400000000001 L 4.924499611816406 1.2641040000000001 L 4.715987611816407 1.2641040000000001 L 4.715987611816407 0.7493400000000001 Q 4.715987611816407 0.6801075000000001 4.685443861816406 0.6373462500000001 Q 4.654900111816406 0.5945850000000001 4.598699611816406 0.5945850000000001 Q 4.5596036118164065 0.5945850000000001 4.527023611816406 0.6145402500000001 Q 4.494443611816406 0.6344955000000001 4.4748956118164065 0.6699262500000001 Q 4.455347611816406 0.7053570000000001 4.455347611816406 0.7493400000000001 L 4.455347611816406 1.2641040000000001 L 4.246835611816406 1.2641040000000001 L 4.246835611816406 0.4528620000000001 L 4.434170611816406 0.4528620000000001 L 4.4390576118164065 0.5603760000000001 Q 4.521322111816406 0.4333140000000001 4.678520611816406 0.4333140000000001 Q 4.7599706118164065 0.4333140000000001 4.8149493618164065 0.4691520000000001 Q 4.869928111816407 0.5049900000000002 4.897621111816406 0.5734080000000001 Q 4.9807001118164065 0.4333140000000001 5.149301611816407 0.4333140000000001 Q 5.269033111816406 0.4333140000000001 5.330527861816407 0.5102842500000001 M 5.667298954101563 1.2543300000000002 Q 5.617614454101562 1.2217500000000001 5.592772204101562 1.1663640000000002 Q 5.5679299541015626 1.110978 5.5679299541015626 1.0425600000000002 Q 5.5679299541015626 0.9831015000000001 5.607433204101563 0.9240502500000001 Q 5.646936454101563 0.8649990000000001 5.7479344541015625 0.8234595000000001 Q 5.848932454101563 0.7819200000000002 6.020791954101563 0.7819200000000002 L 6.020791954101563 0.7444530000000001 Q 6.020791954101563 0.6776640000000002 5.988619204101562 0.6410115000000001 Q 5.956446454101562 0.6043590000000001 5.875810954101563 0.6043590000000001 Q 5.812279954101562 0.6043590000000001 5.7515997041015625 0.6259432500000001 Q 5.690919454101563 0.6475275000000001 5.662411954101563 0.6792930000000001 L 5.597251954101563 0.5229090000000001 Q 5.652637954101563 0.48544200000000015 5.7349024541015625 0.45937800000000006 Q 5.8171669541015625 0.4333140000000001 5.910019954101562 0.4333140000000001 Q 6.026493454101563 0.4333140000000001 6.094504204101563 0.4691520000000001 Q 6.162514954101563 0.5049900000000002 6.190207954101563 0.5701500000000002 Q 6.217900954101562 0.6353100000000002 6.217900954101562 0.7314210000000001 L 6.217900954101562 1.2641040000000001 L 6.043597954101562 1.2641040000000001 L 6.028936954101563 1.1484450000000002 Q 5.985768454101563 1.2184920000000001 5.926717204101562 1.252701 Q 5.867665954101563 1.2869100000000002 5.789473954101562 1.2869100000000002 Q 5.7169834541015625 1.2869100000000002 5.667298954101563 1.2543300000000002 M 5.954817454101563 1.1003895000000001 Q 5.996356954101563 1.0702530000000001 6.020791954101563 1.0246410000000001 L 6.020791954101563 0.9089820000000002 Q 6.009388954101563 0.9073530000000001 5.981695954101562 0.9073530000000001 Q 5.8994314541015624 0.9073530000000001 5.834678704101563 0.9346387500000002 Q 5.769925954101563 0.9619245000000001 5.769925954101563 1.023012 Q 5.769925954101563 1.0808415 5.795582704101562 1.10568375 Q 5.821239454101563 1.1305260000000001 5.875810954101563 1.1305260000000001 Q 5.913277954101563 1.1305260000000001 5.954817454101563 1.1003895000000001 M 7.050742316894532 0.5102842500000001 Q 7.112237066894531 0.5872545000000001 7.112237066894531 0.7281630000000001 L 7.112237066894531 1.2641040000000001 L 6.903725066894531 1.2641040000000001 L 6.903725066894531 0.7460820000000001 Q 6.903725066894531 0.6768495000000001 6.874403066894532 0.6357172500000001 Q 6.845081066894531 0.5945850000000001 6.788066066894531 0.5945850000000001 Q 6.749784566894531 0.5945850000000001 6.716797316894532 0.6141330000000002 Q 6.683810066894531 0.6336810000000002 6.664262066894532 0.6682972500000001 Q 6.644714066894531 0.7029135000000001 6.644714066894531 0.7460820000000001 L 6.644714066894531 1.2641040000000001 L 6.4362020668945314 1.2641040000000001 L 6.4362020668945314 0.4528620000000001 L 6.625166066894532 0.4528620000000001 L 6.629238566894531 0.5595615000000002 Q 6.713132066894532 0.4333140000000001 6.867887066894531 0.4333140000000001 Q 6.989247566894531 0.4333140000000001 7.050742316894532 0.5102842500000001 M 7.44825251953125 1.2339675 Q 7.37535476953125 1.1810250000000002 7.33585151953125 1.08450675 Q 7.29634826953125 0.9879885000000002 7.29634826953125 0.8601120000000001 Q 7.29634826953125 0.6564870000000002 7.37902001953125 0.5449005000000001 Q 7.46169176953125 0.4333140000000001 7.62214826953125 0.4333140000000001 Q 7.70604176953125 0.4333140000000001 7.76305676953125 0.47485350000000015 Q 7.82007176953125 0.5163930000000001 7.83717626953125 0.5929560000000001 L 7.82251526953125 0.4740390000000001 L 7.82251526953125 0.026064000000000087 L 8.01473726953125 0.026064000000000087 L 8.01473726953125 1.2641040000000001 L 7.83717626953125 1.2641040000000001 L 7.83717626953125 1.097946 Q 7.81437026953125 1.1850975000000001 7.75816976953125 1.23600375 Q 7.70196926953125 1.2869100000000002 7.61889026953125 1.2869100000000002 Q 7.52115026953125 1.2869100000000002 7.44825251953125 1.2339675 M 7.74147251953125 1.097946 Q 7.77608876953125 1.0702530000000001 7.79685851953125 1.0112017500000001 Q 7.81762826953125 0.9521505000000001 7.81762826953125 0.8633700000000002 Q 7.81762826953125 0.7346790000000001 7.78097576953125 0.6662610000000001 Q 7.74432326953125 0.5978430000000001 7.67101826953125 0.5978430000000001 Q 7.62866426953125 0.5978430000000001 7.59160451953125 0.6230925000000002 Q 7.55454476953125 0.6483420000000001 7.53051701953125 0.7069860000000001 Q 7.50648926953125 0.76563 7.50648926953125 0.8601120000000001 Q 7.50648926953125 0.9472635 7.52725901953125 1.0067220000000001 Q 7.54802876953125 1.0661805000000002 7.58427401953125 1.0959097500000001 Q 7.6205192695312505 1.125639 7.66613126953125 1.125639 Q 7.70685626953125 1.125639 7.74147251953125 1.097946 M 8.73070583642578 1.21156875 Q 8.624006336425781 1.1394855000000002 8.569434836425781 1.0071292500000002 Q 8.51486333642578 0.8747730000000001 8.51486333642578 0.6955830000000001 Q 8.51486333642578 0.5180220000000001 8.569027586425781 0.38566575000000014 Q 8.62319183642578 0.2533095000000001 8.72866958642578 0.18122625000000014 Q 8.834147336425781 0.10914299999999999 8.98401533642578 0.10914299999999999 Q 9.139584836425781 0.10914299999999999 9.24628433642578 0.18204075000000008 Q 9.35298383642578 0.2549385000000002 9.40633358642578 0.38688750000000005 Q 9.45968333642578 0.5188365000000001 9.45968333642578 0.6955830000000001 Q 9.45968333642578 0.8747730000000001 9.40470458642578 1.0071292500000002 Q 9.34972583642578 1.1394855000000002 9.24384083642578 1.21156875 Q 9.13795583642578 1.283652 8.988902336425781 1.283652 Q 8.83740533642578 1.283652 8.73070583642578 1.21156875 M 9.11881508642578 1.0629225 Q 9.17623733642578 1.016496 9.20963183642578 0.9220140000000001 Q 9.24302633642578 0.8275320000000002 9.24302633642578 0.6906960000000001 Q 9.24302633642578 0.4895145000000001 9.175015586425781 0.38403675000000015 Q 9.10700483642578 0.2785590000000001 8.98401533642578 0.2785590000000001 Q 8.86428383642578 0.2785590000000001 8.79871658642578 0.38403675000000015 Q 8.73314933642578 0.4895145000000001 8.73314933642578 0.6923250000000001 Q 8.73314933642578 0.8307900000000001 8.76450758642578 0.9240502500000001 Q 8.795865836425781 1.0173105000000002 8.853288086425781 1.06332975 Q 8.91071033642578 1.1093490000000001 8.988902336425781 1.1093490000000001 Q 9.06139283642578 1.1093490000000001 9.11881508642578 1.0629225 M 9.655195948242188 0.6239070000000001 L 9.546052948242187 0.6239070000000001 L 9.546052948242187 0.4528620000000001 L 9.655195948242188 0.4528620000000001 L 9.655195948242188 0.3029940000000001 Q 9.655195948242188 0.1865205000000001 9.698364448242188 0.11891700000000016 Q 9.741532948242188 0.05131350000000001 9.803434948242188 0.025656750000000006 Q 9.865336948242188 0 9.930496948242187 0 Q 9.999729448242187 0 10.043305198242187 0.012217499999999992 Q 10.086880948242188 0.024435000000000207 10.098283948242187 0.035838000000000036 L 10.098283948242187 0.21339900000000012 Q 10.081179448242187 0.19222200000000011 10.045748698242187 0.18000450000000012 Q 10.010317948242188 0.16778700000000013 9.980995948242187 0.16778700000000013 Q 9.852304948242187 0.16778700000000013 9.852304948242187 0.2981070000000001 L 9.852304948242187 0.4528620000000001 L 10.049413948242186 0.4528620000000001 L 10.049413948242186 0.6239070000000001 L 9.852304948242187 0.6239070000000001 L 9.852304948242187 1.2641040000000001 L 9.655195948242188 1.2641040000000001 L 9.655195948242188 0.6239070000000001 M 10.223716948242187 0.6239070000000001 L 10.114573948242187 0.6239070000000001 L 10.114573948242187 0.4528620000000001 L 10.223716948242187 0.4528620000000001 L 10.223716948242187 0.3029940000000001 Q 10.223716948242187 0.1865205000000001 10.266885448242187 0.11891700000000016 Q 10.310053948242187 0.05131350000000001 10.371955948242187 0.025656750000000006 Q 10.433857948242187 0 10.499017948242187 0 Q 10.568250448242187 0 10.611826198242188 0.012217499999999992 Q 10.655401948242186 0.024435000000000207 10.666804948242188 0.035838000000000036 L 10.666804948242188 0.21339900000000012 Q 10.649700448242188 0.19222200000000011 10.614269698242188 0.18000450000000012 Q 10.578838948242188 0.16778700000000013 10.549516948242188 0.16778700000000013 Q 10.420825948242188 0.16778700000000013 10.420825948242188 0.2981070000000001 L 10.420825948242188 0.4528620000000001 L 10.617934948242187 0.4528620000000001 L 10.617934948242187 0.6239070000000001 L 10.420825948242188 0.6239070000000001 L 10.420825948242188 1.2641040000000001 L 10.223716948242187 1.2641040000000001 L 10.223716948242187 0.6239070000000001 M 10.774318948242188 0.10425600000000013 L 11.002378948242187 0.10425600000000013 L 11.002378948242187 0.3209130000000001 L 10.774318948242188 0.3209130000000001 L 10.774318948242188 0.10425600000000013 M 10.782463948242187 0.4528620000000001 L 10.994233948242186 0.4528620000000001 L 10.994233948242186 1.2641040000000001 L 10.782463948242187 1.2641040000000001 L 10.782463948242187 0.4528620000000001 M 11.348585991210937 1.22704425 Q 11.265506991210938 1.1704365 11.226003741210937 1.0751400000000002 Q 11.186500491210937 0.9798435000000001 11.186500491210937 0.8617410000000001 Q 11.186500491210937 0.7460820000000001 11.230483491210936 0.6483420000000001 Q 11.274466491210937 0.5506020000000001 11.360803491210937 0.4919580000000001 Q 11.447140491210936 0.4333140000000001 11.567686491210937 0.4333140000000001 Q 11.642620491210938 0.4333140000000001 11.698413741210937 0.44919675000000014 Q 11.754206991210937 0.4650795000000001 11.805520491210936 0.5066190000000002 L 11.738731491210936 0.6792930000000001 Q 11.715110991210937 0.6442695000000002 11.669091741210936 0.6234997500000001 Q 11.623072491210937 0.6027300000000001 11.579089491210937 0.6027300000000001 Q 11.401528491210938 0.6027300000000001 11.401528491210938 0.8601120000000001 Q 11.401528491210938 0.9945045000000001 11.445104241210936 1.0559992500000002 Q 11.488679991210937 1.1174940000000002 11.579089491210937 1.1174940000000002 Q 11.633660991210936 1.1174940000000002 11.678865741210936 1.0971315000000001 Q 11.724070491210936 1.076769 11.750134491210936 1.047447 L 11.812036491210936 1.192428 Q 11.794117491210937 1.2119760000000002 11.757872241210936 1.23274575 Q 11.721626991210936 1.2535155000000002 11.669498991210936 1.2685837500000001 Q 11.617370991210937 1.283652 11.556283491210937 1.283652 Q 11.431664991210937 1.283652 11.348585991210937 1.22704425 M 12.084061196777343 1.22948775 Q 11.998538696777343 1.1736945 11.959035446777344 1.080027 Q 11.919532196777343 0.9863595000000001 11.919532196777343 0.8682570000000001 Q 11.919532196777343 0.7477110000000001 11.963922446777344 0.64874925 Q 12.008312696777343 0.5497875000000001 12.093835196777343 0.49155075000000015 Q 12.179357696777343 0.4333140000000001 12.297460196777344 0.4333140000000001 Q 12.473392196777343 0.4333140000000001 12.549140696777343 0.5347192500000001 Q 12.624889196777344 0.6361245000000001 12.624889196777344 0.8373060000000001 Q 12.624889196777344 0.8764020000000001 12.621631196777344 0.9252720000000001 L 12.132931196777344 0.9252720000000001 Q 12.137818196777344 1.0238265000000002 12.187909946777344 1.0771762500000002 Q 12.238001696777344 1.1305260000000001 12.334927196777343 1.1305260000000001 Q 12.385426196777344 1.1305260000000001 12.443255696777344 1.1081272500000001 Q 12.501085196777344 1.0857285 12.528778196777344 1.0539630000000002 L 12.593938196777344 1.2087180000000002 Q 12.479093696777344 1.2852810000000001 12.300718196777344 1.2852810000000001 Q 12.169583696777345 1.2852810000000001 12.084061196777343 1.22948775 M 12.418006196777343 0.7982100000000001 Q 12.418006196777343 0.6784785000000001 12.388276946777344 0.6332737500000001 Q 12.358547696777343 0.5880690000000001 12.302347196777344 0.5880690000000001 Q 12.223340696777344 0.5880690000000001 12.179764946777343 0.6467130000000001 Q 12.136189196777345 0.7053570000000001 12.131302196777344 0.7982100000000001 L 12.418006196777343 0.7982100000000001 M 13.276870993652341 1.2641040000000001 Q 13.209674743652343 1.246185 13.159175743652343 1.2176775000000002 Q 13.108676743652342 1.18917 13.079354743652342 1.158219 L 13.162433743652342 0.9871740000000001 Q 13.181167243652343 1.011609 13.219448743652343 1.0393020000000002 Q 13.257730243652343 1.0669950000000001 13.307007493652343 1.086543 Q 13.356284743652342 1.1060910000000002 13.405154743652343 1.1060910000000002 Q 13.469500243652343 1.1060910000000002 13.513075993652343 1.0706602500000002 Q 13.556651743652342 1.0352295 13.556651743652342 0.9708840000000001 Q 13.556651743652342 0.9293445000000001 13.536696493652343 0.8988007500000001 Q 13.516741243652342 0.8682570000000001 13.483753993652343 0.8442292500000002 Q 13.450766743652343 0.8202015 13.382348743652342 0.7786620000000002 Q 13.288681243652343 0.7216470000000001 13.235738743652343 0.6813292500000001 Q 13.182796243652342 0.6410115000000001 13.144107493652342 0.5754442500000001 Q 13.105418743652342 0.5098770000000001 13.105418743652342 0.41702400000000006 Q 13.105418743652342 0.32661450000000014 13.144107493652342 0.25697475000000014 Q 13.182796243652342 0.18733500000000003 13.258544743652342 0.148239 Q 13.334293243652342 0.10914299999999999 13.440992743652343 0.10914299999999999 Q 13.614481243652342 0.10914299999999999 13.730954743652342 0.215028 L 13.639730743652342 0.38118600000000014 Q 13.625884243652342 0.3616380000000001 13.598191243652343 0.33842475000000005 Q 13.570498243652342 0.3152115000000001 13.531402243652343 0.2985142500000001 Q 13.492306243652342 0.2818170000000001 13.449137743652342 0.2818170000000001 Q 13.386421243652343 0.2818170000000001 13.351804993652342 0.3180622500000001 Q 13.317188743652343 0.3543075000000001 13.317188743652343 0.4088790000000001 Q 13.317188743652343 0.45041850000000005 13.337958493652343 0.48259125000000014 Q 13.358728243652342 0.5147640000000001 13.392529993652342 0.5400135000000001 Q 13.426331743652343 0.5652630000000001 13.483346743652342 0.5994720000000001 Q 13.586788243652343 0.6605595000000001 13.641359743652343 0.7020990000000001 Q 13.695931243652343 0.7436385000000001 13.732990993652342 0.8075767500000002 Q 13.770050743652343 0.871515 13.770050743652343 0.9643680000000001 Q 13.770050743652343 1.0629225 13.727696743652343 1.1345985 Q 13.685342743652342 1.2062745000000001 13.606336243652342 1.2441487500000001 Q 13.527329743652341 1.2820230000000001 13.419815743652343 1.2820230000000001 Q 13.344067243652342 1.2820230000000001 13.276870993652341 1.2641040000000001 M 14.060058877441405 1.22948775 Q 13.974536377441405 1.1736945 13.935033127441406 1.080027 Q 13.895529877441405 0.9863595000000001 13.895529877441405 0.8682570000000001 Q 13.895529877441405 0.7477110000000001 13.939920127441406 0.64874925 Q 13.984310377441405 0.5497875000000001 14.069832877441405 0.49155075000000015 Q 14.155355377441404 0.4333140000000001 14.273457877441405 0.4333140000000001 Q 14.449389877441405 0.4333140000000001 14.525138377441404 0.5347192500000001 Q 14.600886877441406 0.6361245000000001 14.600886877441406 0.8373060000000001 Q 14.600886877441406 0.8764020000000001 14.597628877441405 0.9252720000000001 L 14.108928877441405 0.9252720000000001 Q 14.113815877441406 1.0238265000000002 14.163907627441406 1.0771762500000002 Q 14.213999377441406 1.1305260000000001 14.310924877441405 1.1305260000000001 Q 14.361423877441405 1.1305260000000001 14.419253377441406 1.1081272500000001 Q 14.477082877441406 1.0857285 14.504775877441405 1.0539630000000002 L 14.569935877441406 1.2087180000000002 Q 14.455091377441406 1.2852810000000001 14.276715877441406 1.2852810000000001 Q 14.145581377441406 1.2852810000000001 14.060058877441405 1.22948775 M 14.394003877441405 0.7982100000000001 Q 14.394003877441405 0.6784785000000001 14.364274627441405 0.6332737500000001 Q 14.334545377441405 0.5880690000000001 14.278344877441405 0.5880690000000001 Q 14.199338377441405 0.5880690000000001 14.155762627441405 0.6467130000000001 Q 14.112186877441406 0.7053570000000001 14.107299877441406 0.7982100000000001 L 14.394003877441405 0.7982100000000001 M 14.784934447265623 0.4528620000000001 L 14.969011447265624 0.4528620000000001 L 14.978785447265624 0.5962140000000001 Q 15.004849447265624 0.5334975000000001 15.061049947265623 0.48829275000000005 Q 15.117250447265624 0.44308800000000015 15.219877447265624 0.44308800000000015 Q 15.260602447265622 0.44308800000000015 15.294811447265623 0.4561200000000001 L 15.249199447265623 0.6695190000000001 Q 15.235352947265623 0.6556725000000001 15.216212197265623 0.6495637500000001 Q 15.197071447265623 0.6434550000000001 15.169378447265624 0.6434550000000001 Q 15.112363447265624 0.6434550000000001 15.071231197265623 0.6674827500000001 Q 15.030098947265623 0.6915105000000001 15.009329197265624 0.7232760000000001 Q 14.988559447265624 0.7550415000000001 14.988559447265624 0.7754040000000001 L 14.988559447265624 1.2641040000000001 L 14.784934447265623 1.2641040000000001 L 14.784934447265623 0.4528620000000001 M 15.285068468261716 0.4528620000000001 L 15.513128468261717 0.4528620000000001 L 15.653222468261717 0.8584830000000001 L 15.689060468261717 0.9920610000000001 L 15.721640468261716 0.8584830000000001 L 15.856847468261716 0.4528620000000001 L 16.071875468261716 0.4528620000000001 L 15.759107468261716 1.2641040000000001 L 15.614126468261716 1.2641040000000001 L 15.285068468261716 0.4528620000000001 M 16.176144990234373 0.10425600000000013 L 16.404204990234373 0.10425600000000013 L 16.404204990234373 0.3209130000000001 L 16.176144990234373 0.3209130000000001 L 16.176144990234373 0.10425600000000013 M 16.184289990234372 0.4528620000000001 L 16.396059990234374 0.4528620000000001 L 16.396059990234374 1.2641040000000001 L 16.184289990234372 1.2641040000000001 L 16.184289990234372 0.4528620000000001 M 16.75041521484375 1.22704425 Q 16.66733621484375 1.1704365 16.62783296484375 1.0751400000000002 Q 16.58832971484375 0.9798435000000001 16.58832971484375 0.8617410000000001 Q 16.58832971484375 0.7460820000000001 16.63231271484375 0.6483420000000001 Q 16.67629571484375 0.5506020000000001 16.76263271484375 0.4919580000000001 Q 16.84896971484375 0.4333140000000001 16.969515714843748 0.4333140000000001 Q 17.04444971484375 0.4333140000000001 17.10024296484375 0.44919675000000014 Q 17.15603621484375 0.4650795000000001 17.20734971484375 0.5066190000000002 L 17.14056071484375 0.6792930000000001 Q 17.11694021484375 0.6442695000000002 17.07092096484375 0.6234997500000001 Q 17.02490171484375 0.6027300000000001 16.98091871484375 0.6027300000000001 Q 16.80335771484375 0.6027300000000001 16.80335771484375 0.8601120000000001 Q 16.80335771484375 0.9945045000000001 16.84693346484375 1.0559992500000002 Q 16.89050921484375 1.1174940000000002 16.98091871484375 1.1174940000000002 Q 17.03549021484375 1.1174940000000002 17.08069496484375 1.0971315000000001 Q 17.12589971484375 1.076769 17.15196371484375 1.047447 L 17.21386571484375 1.192428 Q 17.19594671484375 1.2119760000000002 17.15970146484375 1.23274575 Q 17.12345621484375 1.2535155000000002 17.07132821484375 1.2685837500000001 Q 17.01920021484375 1.283652 16.95811271484375 1.283652 Q 16.83349421484375 1.283652 16.75041521484375 1.22704425 M 17.485890420410154 1.22948775 Q 17.400367920410154 1.1736945 17.360864670410155 1.080027 Q 17.321361420410156 0.9863595000000001 17.321361420410156 0.8682570000000001 Q 17.321361420410156 0.7477110000000001 17.365751670410155 0.64874925 Q 17.410141920410155 0.5497875000000001 17.495664420410154 0.49155075000000015 Q 17.581186920410154 0.4333140000000001 17.699289420410153 0.4333140000000001 Q 17.875221420410156 0.4333140000000001 17.950969920410156 0.5347192500000001 Q 18.026718420410155 0.6361245000000001 18.026718420410155 0.8373060000000001 Q 18.026718420410155 0.8764020000000001 18.023460420410157 0.9252720000000001 L 17.534760420410155 0.9252720000000001 Q 17.539647420410155 1.0238265000000002 17.589739170410155 1.0771762500000002 Q 17.639830920410155 1.1305260000000001 17.736756420410156 1.1305260000000001 Q 17.787255420410155 1.1305260000000001 17.845084920410155 1.1081272500000001 Q 17.902914420410156 1.0857285 17.930607420410155 1.0539630000000002 L 17.995767420410154 1.2087180000000002 Q 17.880922920410153 1.2852810000000001 17.702547420410156 1.2852810000000001 Q 17.571412920410154 1.2852810000000001 17.485890420410154 1.22948775 M 17.819835420410154 0.7982100000000001 Q 17.819835420410154 0.6784785000000001 17.790106170410155 0.6332737500000001 Q 17.760376920410156 0.5880690000000001 17.704176420410153 0.5880690000000001 Q 17.625169920410155 0.5880690000000001 17.581594170410156 0.6467130000000001 Q 17.538018420410154 0.7053570000000001 17.533131420410154 0.7982100000000001 L 17.819835420410154 0.7982100000000001 M 18.257599740234372 1.2498502500000002 Q 18.191217990234374 1.2209355000000002 18.16352499023437 1.1875410000000002 L 18.223797990234374 1.0327860000000002 Q 18.328053990234373 1.119123 18.445341990234372 1.119123 Q 18.498284490234372 1.119123 18.52394124023437 1.09753875 Q 18.54959799023437 1.0759545000000001 18.54959799023437 1.044189 Q 18.54959799023437 1.00998 18.505207740234372 0.9810652500000001 Q 18.460817490234373 0.9521505000000001 18.37366599023437 0.913869 Q 18.317465490234373 0.8894340000000001 18.275925990234374 0.8625555 Q 18.23438649023437 0.8356770000000001 18.20384274023437 0.7896577500000002 Q 18.173298990234372 0.7436385000000001 18.173298990234372 0.6776640000000002 Q 18.173298990234372 0.6043590000000001 18.209544240234372 0.5497875000000001 Q 18.245789490234372 0.4952160000000001 18.315021990234374 0.46589400000000014 Q 18.384254490234373 0.43657200000000007 18.481179990234374 0.43657200000000007 Q 18.539009490234374 0.43657200000000007 18.58991574023437 0.44919675000000014 Q 18.64082199023437 0.4618215000000001 18.676659990234374 0.4801477500000001 Q 18.71249799023437 0.4984740000000001 18.728787990234373 0.5147640000000001 L 18.673401990234375 0.6613740000000001 Q 18.63593499023437 0.6328665000000001 18.587472240234373 0.6129112500000001 Q 18.539009490234374 0.5929560000000001 18.48769599023437 0.5929560000000001 Q 18.426608490234372 0.5929560000000001 18.401766240234373 0.6088387500000001 Q 18.376923990234374 0.6247215000000002 18.376923990234374 0.6613740000000001 Q 18.376923990234374 0.6980265000000001 18.413169240234375 0.7224615000000001 Q 18.44941449023437 0.7468965000000001 18.525162990234374 0.7770330000000001 Q 18.634305990234374 0.8202015 18.69294999023437 0.8792527500000001 Q 18.751593990234372 0.9383040000000001 18.751593990234372 1.023012 Q 18.751593990234372 1.0938735000000002 18.71942124023437 1.15129575 Q 18.687248490234374 1.2087180000000002 18.617608740234374 1.2437415 Q 18.547968990234374 1.2787650000000002 18.44045499023437 1.2787650000000002 Q 18.323981490234374 1.2787650000000002 18.257599740234372 1.2498502500000002 M 19.251720057128903 0.1286910000000001 L 19.460232057128906 0.1286910000000001 L 19.460232057128906 1.2641040000000001 L 19.251720057128903 1.2641040000000001 L 19.251720057128903 0.1286910000000001 M 20.327231513671872 0.5102842500000001 Q 20.388726263671874 0.5872545000000001 20.388726263671874 0.7281630000000001 L 20.388726263671874 1.2641040000000001 L 20.180214263671875 1.2641040000000001 L 20.180214263671875 0.7460820000000001 Q 20.180214263671875 0.6768495000000001 20.150892263671874 0.6357172500000001 Q 20.121570263671874 0.5945850000000001 20.064555263671874 0.5945850000000001 Q 20.026273763671874 0.5945850000000001 19.993286513671872 0.6141330000000002 Q 19.960299263671875 0.6336810000000002 19.940751263671874 0.6682972500000001 Q 19.921203263671874 0.7029135000000001 19.921203263671874 0.7460820000000001 L 19.921203263671874 1.2641040000000001 L 19.712691263671875 1.2641040000000001 L 19.712691263671875 0.4528620000000001 L 19.901655263671874 0.4528620000000001 L 19.905727763671873 0.5595615000000002 Q 19.989621263671875 0.4333140000000001 20.144376263671873 0.4333140000000001 Q 20.265736763671875 0.4333140000000001 20.327231513671872 0.5102842500000001 M 20.73492296630859 1.22704425 Q 20.651843966308594 1.1704365 20.612340716308594 1.0751400000000002 Q 20.57283746630859 0.9798435000000001 20.57283746630859 0.8617410000000001 Q 20.57283746630859 0.7460820000000001 20.616820466308592 0.6483420000000001 Q 20.660803466308593 0.5506020000000001 20.747140466308593 0.4919580000000001 Q 20.833477466308594 0.4333140000000001 20.95402346630859 0.4333140000000001 Q 21.028957466308594 0.4333140000000001 21.084750716308594 0.44919675000000014 Q 21.14054396630859 0.4650795000000001 21.191857466308594 0.5066190000000002 L 21.125068466308594 0.6792930000000001 Q 21.101447966308594 0.6442695000000002 21.055428716308594 0.6234997500000001 Q 21.009409466308593 0.6027300000000001 20.965426466308593 0.6027300000000001 Q 20.787865466308592 0.6027300000000001 20.787865466308592 0.8601120000000001 Q 20.787865466308592 0.9945045000000001 20.831441216308594 1.0559992500000002 Q 20.875016966308593 1.1174940000000002 20.965426466308593 1.1174940000000002 Q 21.019997966308594 1.1174940000000002 21.065202716308594 1.0971315000000001 Q 21.110407466308594 1.076769 21.136471466308592 1.047447 L 21.198373466308592 1.192428 Q 21.180454466308593 1.2119760000000002 21.144209216308592 1.23274575 Q 21.107963966308592 1.2535155000000002 21.055835966308592 1.2685837500000001 Q 21.003707966308593 1.283652 20.942620466308593 1.283652 Q 20.818001966308593 1.283652 20.73492296630859 1.22704425" fill="#fffcf7" fill-rule="nonzero"></path></g><g><path d=" M 0.9439905 2.637896175 L 0.9439905 1.8779706749999998 L 0.6060997499999999 2.4682934249999997 L 0.54825075 2.4682934249999997 L 0.20904525 1.8779706749999998 L 0.20904525 2.637896175 L 0.11701275 2.637896175 L 0.11701275 1.704423675 L 0.21167475 1.704423675 L 0.5758605 2.343392175 L 0.9426757499999999 1.704423675 L 1.036023 1.704423675 L 1.036023 2.637896175 L 0.9439905 2.637896175 M 1.1898609473876953 2.440683675 Q 1.1898609473876953 2.376260925 1.2266739473876953 2.3295873 Q 1.2634869473876953 2.2829136749999996 1.3285670723876952 2.2572760499999998 Q 1.3936471973876952 2.231638425 1.4791059473876953 2.231638425 Q 1.5290664473876951 2.231638425 1.5829711973876952 2.239526925 Q 1.6368759473876953 2.247415425 1.6789479473876954 2.2631924249999997 L 1.6789479473876954 2.2053434249999997 Q 1.6789479473876954 2.118569925 1.6276726973876952 2.067294675 Q 1.5763974473876954 2.0160194249999996 1.4856796973876953 2.0160194249999996 Q 1.4304601973876951 2.0160194249999996 1.3772128223876954 2.03639805 Q 1.3239654473876952 2.056776675 1.2661164473876954 2.096219175 L 1.2319329473876952 2.0331111749999997 Q 1.2989851973876954 1.9870949249999998 1.3634079473876952 1.9640868 Q 1.4278306973876953 1.941078675 1.4948829473876952 1.941078675 Q 1.6210989473876953 1.941078675 1.6947249473876953 2.013389925 Q 1.7683509473876953 2.0857011749999996 1.7683509473876953 2.2132319249999997 L 1.7683509473876953 2.5300866749999997 Q 1.7683509473876953 2.548493175 1.7762394473876952 2.5570390499999998 Q 1.7841279473876952 2.565584925 1.8012196973876953 2.5668996749999997 L 1.8012196973876953 2.637896175 Q 1.7867574473876953 2.639210925 1.7762394473876952 2.6405256749999997 Q 1.7657214473876954 2.641840425 1.7604624473876953 2.6405256749999997 Q 1.7275936973876953 2.639210925 1.7105019473876952 2.6194896749999996 Q 1.6934101973876952 2.5997684249999997 1.6920954473876952 2.577417675 L 1.6907806973876953 2.527457175 Q 1.6447644473876952 2.586620925 1.5711384473876953 2.6188323 Q 1.4975124473876953 2.651043675 1.4212569473876953 2.651043675 Q 1.3555194473876953 2.651043675 1.3022720723876953 2.6227765499999998 Q 1.2490246973876953 2.594509425 1.2194428223876952 2.54652105 Q 1.1898609473876953 2.498532675 1.1898609473876953 2.440683675 M 1.6487086973876952 2.4932736749999997 Q 1.6631709473876952 2.474867175 1.6710594473876954 2.457775425 Q 1.6789479473876954 2.440683675 1.6789479473876954 2.4275361749999997 L 1.6789479473876954 2.327615175 Q 1.6342464473876952 2.310523425 1.5862580723876953 2.301320175 Q 1.5382696973876953 2.2921169249999997 1.4896239473876953 2.2921169249999997 Q 1.3936471973876952 2.2921169249999997 1.3344834473876952 2.330244675 Q 1.2753196973876952 2.368372425 1.2753196973876952 2.434109925 Q 1.2753196973876952 2.4722376749999997 1.2950409473876954 2.5057638 Q 1.3147621973876953 2.539289925 1.3528899473876952 2.5609832999999997 Q 1.3910176973876953 2.5826766749999996 1.4422929473876953 2.5826766749999996 Q 1.5067156973876954 2.5826766749999996 1.5625925723876952 2.557696425 Q 1.6184694473876953 2.532716175 1.6487086973876952 2.4932736749999997 M 2.537457228515625 2.637896175 L 2.448054228515625 2.637896175 L 2.448054228515625 2.2553039249999998 Q 2.448054228515625 2.134346925 2.4125559785156248 2.07847005 Q 2.377057728515625 2.022593175 2.3008022285156247 2.022593175 Q 2.2482122285156247 2.022593175 2.196936978515625 2.0482308 Q 2.1456617285156248 2.0738684249999997 2.106876603515625 2.11791255 Q 2.068091478515625 2.161956675 2.0509997285156247 2.218490925 L 2.0509997285156247 2.637896175 L 1.9615967285156248 2.637896175 L 1.9615967285156248 1.952911425 L 2.0431112285156248 1.952911425 L 2.0431112285156248 2.108051925 Q 2.0707209785156246 2.0580914249999998 2.115422478515625 2.02062105 Q 2.160123978515625 1.9831506749999999 2.216658228515625 1.962114675 Q 2.273192478515625 1.941078675 2.3336709785156247 1.941078675 Q 2.390205228515625 1.941078675 2.429647728515625 1.962114675 Q 2.4690902285156247 1.9831506749999999 2.4927557285156245 2.0219357999999996 Q 2.516421228515625 2.060720925 2.5269392285156247 2.11528305 Q 2.537457228515625 2.169845175 2.537457228515625 2.236897425 L 2.537457228515625 2.637896175 M 2.6728867499999995 2.440683675 Q 2.6728867499999995 2.376260925 2.7096997499999995 2.3295873 Q 2.74651275 2.2829136749999996 2.8115928749999997 2.2572760499999998 Q 2.876673 2.231638425 2.9621317499999997 2.231638425 Q 3.01209225 2.231638425 3.065997 2.239526925 Q 3.1199017499999995 2.247415425 3.1619737499999996 2.2631924249999997 L 3.1619737499999996 2.2053434249999997 Q 3.1619737499999996 2.118569925 3.1106985 2.067294675 Q 3.0594232499999996 2.0160194249999996 2.9687054999999996 2.0160194249999996 Q 2.913486 2.0160194249999996 2.8602386249999996 2.03639805 Q 2.80699125 2.056776675 2.74914225 2.096219175 L 2.7149587499999996 2.0331111749999997 Q 2.782011 1.9870949249999998 2.8464337499999997 1.9640868 Q 2.9108564999999995 1.941078675 2.9779087499999997 1.941078675 Q 3.1041247499999995 1.941078675 3.1777507499999995 2.013389925 Q 3.2513767499999995 2.0857011749999996 3.2513767499999995 2.2132319249999997 L 3.2513767499999995 2.5300866749999997 Q 3.2513767499999995 2.548493175 3.2592652499999994 2.5570390499999998 Q 3.26715375 2.565584925 3.2842455 2.5668996749999997 L 3.2842455 2.637896175 Q 3.2697832499999997 2.639210925 3.2592652499999994 2.6405256749999997 Q 3.2487472499999996 2.641840425 3.2434882499999995 2.6405256749999997 Q 3.2106195 2.639210925 3.1935277499999994 2.6194896749999996 Q 3.176436 2.5997684249999997 3.1751212499999997 2.577417675 L 3.1738064999999995 2.527457175 Q 3.12779025 2.586620925 3.0541642499999995 2.6188323 Q 2.9805382499999995 2.651043675 2.9042827499999997 2.651043675 Q 2.8385452499999997 2.651043675 2.785297875 2.6227765499999998 Q 2.7320504999999997 2.594509425 2.702468625 2.54652105 Q 2.6728867499999995 2.498532675 2.6728867499999995 2.440683675 M 3.1317345 2.4932736749999997 Q 3.1461967499999997 2.474867175 3.1540852499999996 2.457775425 Q 3.1619737499999996 2.440683675 3.1619737499999996 2.4275361749999997 L 3.1619737499999996 2.327615175 Q 3.1172722499999996 2.310523425 3.0692838749999996 2.301320175 Q 3.0212955 2.2921169249999997 2.9726497499999995 2.2921169249999997 Q 2.876673 2.2921169249999997 2.8175092499999996 2.330244675 Q 2.7583455 2.368372425 2.7583455 2.434109925 Q 2.7583455 2.4722376749999997 2.77806675 2.5057638 Q 2.7977879999999997 2.539289925 2.83591575 2.5609832999999997 Q 2.8740434999999995 2.5826766749999996 2.9253187499999997 2.5826766749999996 Q 2.9897414999999996 2.5826766749999996 3.0456183749999997 2.557696425 Q 3.1014952499999997 2.532716175 3.1317345 2.4932736749999997 M 3.7194052811279295 2.647099425 Q 3.6497235311279295 2.647099425 3.5905597811279293 2.618174925 Q 3.5313960311279295 2.589250425 3.4886666561279296 2.5399472999999997 Q 3.4459372811279296 2.490644175 3.4222717811279293 2.4275361749999997 Q 3.3986062811279294 2.364428175 3.3986062811279294 2.297375925 Q 3.3986062811279294 2.225064675 3.4216144061279294 2.1612993 Q 3.4446225311279295 2.097533925 3.4873519061279294 2.047573425 Q 3.5300812811279294 1.9976129249999999 3.5879302811279294 1.9693458 Q 3.6457792811279295 1.941078675 3.7167757811279296 1.941078675 Q 3.8048640311279294 1.941078675 3.8699441561279295 1.985780175 Q 3.9350242811279292 2.030481675 3.9797257811279296 2.096219175 L 3.9797257811279296 1.952911425 L 4.059925531127929 1.952911425 L 4.059925531127929 2.6405256749999997 Q 4.059925531127929 2.7351876749999997 4.014566656127929 2.8002678 Q 3.9692077811279294 2.865347925 3.8922949061279297 2.898216675 Q 3.8153820311279296 2.931085425 3.7246642811279296 2.931085425 Q 3.6076515311279294 2.931085425 3.5353402811279295 2.889013425 Q 3.4630290311279293 2.846941425 3.4170127811279296 2.7759449249999997 L 3.4722322811279294 2.732558175 Q 3.5129895311279293 2.7969809249999997 3.5806991561279293 2.828534925 Q 3.6484087811279293 2.860088925 3.7246642811279296 2.860088925 Q 3.7917165311279293 2.860088925 3.8475934061279293 2.8357660499999997 Q 3.9034702811279294 2.811443175 3.9369964061279292 2.762797425 Q 3.9705225311279295 2.7141516749999997 3.9705225311279295 2.6405256749999997 L 3.9705225311279295 2.5051064249999997 Q 3.9310800311279293 2.569529175 3.8627130311279294 2.6083143 Q 3.7943460311279296 2.647099425 3.7194052811279295 2.647099425 M 3.7443855311279295 2.572158675 Q 3.7851427811279295 2.572158675 3.8226131561279293 2.557696425 Q 3.8600835311279296 2.543234175 3.8916375311279294 2.5189113 Q 3.9231915311279293 2.494588425 3.9442275311279293 2.4643491749999997 Q 3.9652635311279294 2.434109925 3.9705225311279295 2.4025559249999997 L 3.9705225311279295 2.190881175 Q 3.9508012811279296 2.140920675 3.9139882811279296 2.10213555 Q 3.877175281127929 2.063350425 3.8305016561279297 2.04165705 Q 3.7838280311279293 2.0199636749999996 3.7338675311279292 2.0199636749999996 Q 3.6760185311279296 2.0199636749999996 3.6306596561279294 2.04428655 Q 3.5853007811279296 2.068609425 3.5544041561279296 2.1087093 Q 3.5235075311279296 2.148809175 3.5064157811279295 2.198769675 Q 3.4893240311279294 2.248730175 3.4893240311279294 2.298690675 Q 3.4893240311279294 2.3539101749999998 3.5090452811279293 2.4032133 Q 3.5287665311279293 2.4525164249999998 3.5636074061279297 2.4913015499999998 Q 3.5984482811279292 2.5300866749999997 3.6451219061279296 2.551122675 Q 3.6917955311279296 2.572158675 3.7443855311279295 2.572158675 M 4.257112994384765 2.637896175 L 4.257112994384765 1.952911425 L 4.346515994384766 1.952911425 L 4.346515994384766 2.637896175 L 4.257112994384765 2.637896175 M 4.257112994384765 1.809603675 L 4.257112994384765 1.678128675 L 4.346515994384766 1.678128675 L 4.346515994384766 1.809603675 L 4.257112994384765 1.809603675 M 5.119612105224609 2.637896175 L 5.030209105224609 2.637896175 L 5.030209105224609 2.2553039249999998 Q 5.030209105224609 2.134346925 4.994710855224609 2.07847005 Q 4.959212605224609 2.022593175 4.882957105224609 2.022593175 Q 4.830367105224609 2.022593175 4.779091855224609 2.0482308 Q 4.727816605224609 2.0738684249999997 4.689031480224609 2.11791255 Q 4.650246355224609 2.161956675 4.633154605224609 2.218490925 L 4.633154605224609 2.637896175 L 4.5437516052246085 2.637896175 L 4.5437516052246085 1.952911425 L 4.625266105224609 1.952911425 L 4.625266105224609 2.108051925 Q 4.652875855224609 2.0580914249999998 4.697577355224609 2.02062105 Q 4.742278855224609 1.9831506749999999 4.798813105224609 1.962114675 Q 4.855347355224609 1.941078675 4.915825855224609 1.941078675 Q 4.972360105224609 1.941078675 5.011802605224609 1.962114675 Q 5.051245105224609 1.9831506749999999 5.074910605224609 2.0219357999999996 Q 5.098576105224609 2.060720925 5.109094105224609 2.11528305 Q 5.119612105224609 2.169845175 5.119612105224609 2.236897425 L 5.119612105224609 2.637896175 M 5.585043876708983 2.647099425 Q 5.515362126708984 2.647099425 5.456198376708984 2.618174925 Q 5.397034626708984 2.589250425 5.3543052517089835 2.5399472999999997 Q 5.311575876708984 2.490644175 5.287910376708984 2.4275361749999997 Q 5.264244876708984 2.364428175 5.264244876708984 2.297375925 Q 5.264244876708984 2.225064675 5.287253001708984 2.1612993 Q 5.310261126708983 2.097533925 5.352990501708984 2.047573425 Q 5.395719876708984 1.9976129249999999 5.453568876708984 1.9693458 Q 5.511417876708984 1.941078675 5.582414376708984 1.941078675 Q 5.670502626708984 1.941078675 5.735582751708984 1.985780175 Q 5.800662876708984 2.030481675 5.845364376708984 2.096219175 L 5.845364376708984 1.952911425 L 5.925564126708984 1.952911425 L 5.925564126708984 2.6405256749999997 Q 5.925564126708984 2.7351876749999997 5.880205251708984 2.8002678 Q 5.834846376708984 2.865347925 5.757933501708984 2.898216675 Q 5.681020626708984 2.931085425 5.590302876708984 2.931085425 Q 5.473290126708984 2.931085425 5.400978876708984 2.889013425 Q 5.328667626708984 2.846941425 5.2826513767089835 2.7759449249999997 L 5.337870876708984 2.732558175 Q 5.378628126708984 2.7969809249999997 5.446337751708984 2.828534925 Q 5.514047376708984 2.860088925 5.590302876708984 2.860088925 Q 5.657355126708984 2.860088925 5.713232001708984 2.8357660499999997 Q 5.769108876708984 2.811443175 5.802635001708984 2.762797425 Q 5.8361611267089835 2.7141516749999997 5.8361611267089835 2.6405256749999997 L 5.8361611267089835 2.5051064249999997 Q 5.796718626708984 2.569529175 5.728351626708983 2.6083143 Q 5.659984626708984 2.647099425 5.585043876708983 2.647099425 M 5.610024126708984 2.572158675 Q 5.650781376708984 2.572158675 5.688251751708984 2.557696425 Q 5.725722126708984 2.543234175 5.757276126708984 2.5189113 Q 5.788830126708984 2.494588425 5.809866126708984 2.4643491749999997 Q 5.830902126708984 2.434109925 5.8361611267089835 2.4025559249999997 L 5.8361611267089835 2.190881175 Q 5.8164398767089835 2.140920675 5.779626876708984 2.10213555 Q 5.742813876708984 2.063350425 5.696140251708984 2.04165705 Q 5.649466626708984 2.0199636749999996 5.599506126708984 2.0199636749999996 Q 5.541657126708984 2.0199636749999996 5.496298251708984 2.04428655 Q 5.450939376708984 2.068609425 5.4200427517089835 2.1087093 Q 5.389146126708984 2.148809175 5.3720543767089834 2.198769675 Q 5.354962626708984 2.248730175 5.354962626708984 2.298690675 Q 5.354962626708984 2.3539101749999998 5.374683876708984 2.4032133 Q 5.394405126708984 2.4525164249999998 5.429246001708984 2.4913015499999998 Q 5.464086876708984 2.5300866749999997 5.510760501708984 2.551122675 Q 5.5574341267089835 2.572158675 5.610024126708984 2.572158675 M 6.461993040161133 2.848256175 Q 6.480399540161132 2.8495709249999996 6.497491290161133 2.8502283 Q 6.514583040161132 2.850885675 6.522471540161132 2.848256175 Q 6.538248540161132 2.8456266749999997 6.552710790161132 2.8298496749999997 Q 6.567173040161133 2.814072675 6.5868942901611325 2.769371175 Q 6.606615540161132 2.724669675 6.642113790161132 2.637896175 L 6.343665540161132 1.952911425 L 6.438327540161133 1.952911425 L 6.689444790161133 2.5458636749999997 L 6.920840790161132 1.952911425 L 7.010243790161132 1.952911425 L 6.655261290161133 2.836423425 Q 6.646058040161132 2.861403675 6.627651540161132 2.88309705 Q 6.609245040161133 2.904790425 6.582292665161132 2.9172805499999996 Q 6.555340290161133 2.929770675 6.515897790161133 2.931085425 Q 6.504065040161133 2.9324001749999997 6.491574915161133 2.9317428 Q 6.479084790161132 2.931085425 6.461993040161133 2.9284559249999997 L 6.461993040161133 2.848256175 M 7.4020527714843745 2.651043675 Q 7.3284267714843745 2.651043675 7.265976146484374 2.6227765499999998 Q 7.203525521484375 2.594509425 7.158166646484374 2.5452063 Q 7.112807771484374 2.495903175 7.087827521484375 2.4321378 Q 7.062847271484374 2.368372425 7.062847271484374 2.297375925 Q 7.062847271484374 2.223749925 7.087827521484375 2.15998455 Q 7.112807771484374 2.096219175 7.158824021484374 2.04691605 Q 7.2048402714843744 1.9976129249999999 7.267290896484375 1.9693458 Q 7.329741521484374 1.941078675 7.403367521484374 1.941078675 Q 7.476993521484374 1.941078675 7.538786771484374 1.9693458 Q 7.600580021484374 1.9976129249999999 7.646596271484374 2.04691605 Q 7.692612521484374 2.096219175 7.717592771484375 2.15998455 Q 7.742573021484374 2.223749925 7.742573021484374 2.297375925 Q 7.742573021484374 2.368372425 7.717592771484375 2.4321378 Q 7.692612521484374 2.495903175 7.647253646484375 2.5452063 Q 7.601894771484375 2.594509425 7.539444146484374 2.6227765499999998 Q 7.476993521484374 2.651043675 7.4020527714843745 2.651043675 M 7.153565021484375 2.298690675 Q 7.153565021484375 2.374946175 7.1870911464843745 2.4373967999999997 Q 7.220617271484374 2.499847425 7.277151521484375 2.5360030499999997 Q 7.333685771484374 2.572158675 7.4020527714843745 2.572158675 Q 7.470419771484375 2.572158675 7.526954021484374 2.535345675 Q 7.5834882714843745 2.498532675 7.617671771484375 2.4347673 Q 7.651855271484374 2.371001925 7.651855271484374 2.2960611749999997 Q 7.651855271484374 2.219805675 7.617671771484375 2.1566976749999998 Q 7.5834882714843745 2.0935896749999996 7.526954021484374 2.056776675 Q 7.470419771484375 2.0199636749999996 7.4020527714843745 2.0199636749999996 Q 7.333685771484374 2.0199636749999996 7.277808896484374 2.0580914249999998 Q 7.221932021484374 2.096219175 7.187748521484375 2.1586697999999997 Q 7.153565021484375 2.2211204249999996 7.153565021484375 2.298690675 M 7.885842253417969 2.355224925 L 7.885842253417969 1.952911425 L 7.9752452534179685 1.952911425 L 7.9752452534179685 2.339447925 Q 7.9752452534179685 2.4564606749999998 8.015345128417968 2.514309675 Q 8.055445003417969 2.572158675 8.134330003417968 2.572158675 Q 8.186920003417969 2.572158675 8.236223128417969 2.54915055 Q 8.285526253417968 2.5261424249999997 8.323654003417968 2.48341305 Q 8.361781753417969 2.440683675 8.381503003417969 2.384149425 L 8.381503003417969 1.952911425 L 8.47090600341797 1.952911425 L 8.47090600341797 2.5300866749999997 Q 8.47090600341797 2.548493175 8.47879450341797 2.5570390499999998 Q 8.48668300341797 2.565584925 8.50246000341797 2.5668996749999997 L 8.50246000341797 2.637896175 Q 8.48668300341797 2.639210925 8.477479753417969 2.6398683 Q 8.468276503417968 2.6405256749999997 8.460388003417968 2.6405256749999997 Q 8.434093003417969 2.637896175 8.415029128417968 2.6194896749999996 Q 8.395965253417968 2.601083175 8.394650503417969 2.5747881749999997 L 8.392021003417968 2.482755675 Q 8.34731950341797 2.561640675 8.270406628417968 2.606342175 Q 8.193493753417968 2.651043675 8.10409075341797 2.651043675 Q 7.996281253417968 2.651043675 7.941061753417968 2.576102925 Q 7.885842253417969 2.5011621749999997 7.885842253417969 2.355224925 M 9.015204799804687 2.031796425 Q 8.925801799804688 2.034425925 8.858092174804687 2.0817569249999996 Q 8.790382549804688 2.129087925 8.762772799804688 2.211917175 L 8.762772799804688 2.637896175 L 8.673369799804687 2.637896175 L 8.673369799804687 1.952911425 L 8.757513799804688 1.952911425 L 8.757513799804688 2.117255175 Q 8.793012049804688 2.044943925 8.851518424804688 2.0002424249999997 Q 8.910024799804688 1.9555409249999998 8.975762299804687 1.9502819249999999 Q 8.988909799804688 1.948967175 8.998770424804688 1.948967175 Q 9.008631049804688 1.948967175 9.015204799804687 1.9502819249999999 L 9.015204799804687 2.031796425 M 9.775140571289063 2.651043675 Q 9.694940821289062 2.651043675 9.626573821289062 2.6096290499999997 Q 9.558206821289064 2.568214425 9.520079071289063 2.5051064249999997 L 9.520079071289063 2.637896175 L 9.439879321289062 2.637896175 L 9.439879321289062 1.678128675 L 9.529282321289063 1.678128675 L 9.529282321289063 2.096219175 Q 9.575298571289062 2.026537425 9.639721321289063 1.98380805 Q 9.704144071289063 1.941078675 9.789602821289062 1.941078675 Q 9.861914071289062 1.941078675 9.919105696289062 1.971317925 Q 9.976297321289064 2.001557175 10.017054571289062 2.05217505 Q 10.057811821289063 2.1027929249999997 10.078847821289063 2.1665582999999997 Q 10.099883821289064 2.2303236749999997 10.099883821289064 2.297375925 Q 10.099883821289064 2.3696871749999997 10.075560946289063 2.432795175 Q 10.051238071289063 2.495903175 10.006536571289063 2.5452063 Q 9.961835071289062 2.594509425 9.903328696289062 2.6227765499999998 Q 9.844822321289064 2.651043675 9.775140571289063 2.651043675 M 9.754104571289062 2.572158675 Q 9.809324071289062 2.572158675 9.856655071289063 2.5498079249999996 Q 9.903986071289063 2.527457175 9.938169571289063 2.4880146749999996 Q 9.972353071289064 2.448572175 9.990759571289063 2.39926905 Q 10.009166071289062 2.349965925 10.009166071289062 2.297375925 Q 10.009166071289062 2.225064675 9.978269446289064 2.1612993 Q 9.947372821289063 2.097533925 9.892810696289063 2.0587488 Q 9.838248571289062 2.0199636749999996 9.764622571289063 2.0199636749999996 Q 9.712032571289063 2.0199636749999996 9.666673696289063 2.043629175 Q 9.621314821289063 2.067294675 9.586473946289063 2.1060798 Q 9.551633071289062 2.144864925 9.529282321289063 2.190881175 L 9.529282321289063 2.403870675 Q 9.534541321289062 2.4393689249999997 9.556892071289063 2.4702655499999997 Q 9.579242821289062 2.5011621749999997 9.612768946289062 2.523512925 Q 9.646295071289062 2.5458636749999997 9.683108071289062 2.5590111749999997 Q 9.719921071289063 2.572158675 9.754104571289062 2.572158675 M 10.244512098999024 2.355224925 L 10.244512098999024 1.952911425 L 10.333915098999023 1.952911425 L 10.333915098999023 2.339447925 Q 10.333915098999023 2.4564606749999998 10.374014973999024 2.514309675 Q 10.414114848999024 2.572158675 10.492999848999023 2.572158675 Q 10.545589848999024 2.572158675 10.594892973999023 2.54915055 Q 10.644196098999025 2.5261424249999997 10.682323848999024 2.48341305 Q 10.720451598999023 2.440683675 10.740172848999023 2.384149425 L 10.740172848999023 1.952911425 L 10.829575848999024 1.952911425 L 10.829575848999024 2.5300866749999997 Q 10.829575848999024 2.548493175 10.837464348999024 2.5570390499999998 Q 10.845352848999024 2.565584925 10.861129848999024 2.5668996749999997 L 10.861129848999024 2.637896175 Q 10.845352848999024 2.639210925 10.836149598999024 2.6398683 Q 10.826946348999025 2.6405256749999997 10.819057848999025 2.6405256749999997 Q 10.792762848999024 2.637896175 10.773698973999025 2.6194896749999996 Q 10.754635098999024 2.601083175 10.753320348999024 2.5747881749999997 L 10.750690848999024 2.482755675 Q 10.705989348999024 2.561640675 10.629076473999024 2.606342175 Q 10.552163598999025 2.651043675 10.462760598999024 2.651043675 Q 10.354951098999024 2.651043675 10.299731598999024 2.576102925 Q 10.244512098999024 2.5011621749999997 10.244512098999024 2.355224925 M 11.256861895385743 2.651043675 Q 11.172717895385743 2.651043675 11.100406645385743 2.623433925 Q 11.028095395385742 2.5958241749999997 10.975505395385742 2.539289925 L 11.012318395385742 2.4761819249999997 Q 11.070167395385743 2.5300866749999997 11.128673770385742 2.55440955 Q 11.187180145385742 2.5787324249999997 11.252917645385743 2.5787324249999997 Q 11.333117395385743 2.5787324249999997 11.383077895385743 2.54652105 Q 11.433038395385744 2.514309675 11.433038395385744 2.453831175 Q 11.433038395385744 2.413073925 11.408715520385742 2.39138055 Q 11.384392645385743 2.3696871749999997 11.339033770385743 2.3558822999999998 Q 11.293674895385744 2.342077425 11.230566895385742 2.326300425 Q 11.159570395385742 2.306579175 11.111582020385743 2.2848857999999996 Q 11.063593645385742 2.2631924249999997 11.039270770385743 2.2296663 Q 11.014947895385744 2.196140175 11.014947895385744 2.142235425 Q 11.014947895385744 2.075183175 11.048474020385743 2.0311390499999997 Q 11.082000145385743 1.9870949249999998 11.140506520385744 1.9640868 Q 11.199012895385742 1.941078675 11.271324145385742 1.941078675 Q 11.350209145385742 1.941078675 11.410687645385742 1.966058925 Q 11.471166145385743 1.9910391749999998 11.509293895385742 2.035740675 L 11.465907145385742 2.096219175 Q 11.429094145385744 2.0541471749999998 11.378476270385743 2.03376855 Q 11.327858395385743 2.013389925 11.266065145385742 2.013389925 Q 11.223993145385743 2.013389925 11.185865395385743 2.0245653 Q 11.147737645385742 2.035740675 11.123414770385743 2.0613783 Q 11.099091895385742 2.0870159249999998 11.099091895385742 2.1317174249999997 Q 11.099091895385742 2.1685304249999997 11.117498395385743 2.18890905 Q 11.135904895385742 2.2092876749999997 11.172717895385743 2.2230925499999996 Q 11.209530895385743 2.236897425 11.263435645385742 2.252674425 Q 11.341005895385743 2.273710425 11.398854895385742 2.2954038 Q 11.456703895385743 2.317097175 11.488257895385743 2.351280675 Q 11.519811895385743 2.385464175 11.519811895385743 2.4472574249999997 Q 11.519811895385743 2.543234175 11.447500645385743 2.597138925 Q 11.375189395385743 2.651043675 11.256861895385743 2.651043675 M 11.667026019287109 2.637896175 L 11.667026019287109 1.952911425 L 11.75642901928711 1.952911425 L 11.75642901928711 2.637896175 L 11.667026019287109 2.637896175 M 11.667026019287109 1.809603675 L 11.667026019287109 1.678128675 L 11.75642901928711 1.678128675 L 11.75642901928711 1.809603675 L 11.667026019287109 1.809603675 M 12.529525130126954 2.637896175 L 12.440122130126953 2.637896175 L 12.440122130126953 2.2553039249999998 Q 12.440122130126953 2.134346925 12.404623880126953 2.07847005 Q 12.369125630126954 2.022593175 12.292870130126953 2.022593175 Q 12.240280130126953 2.022593175 12.189004880126953 2.0482308 Q 12.137729630126953 2.0738684249999997 12.098944505126953 2.11791255 Q 12.060159380126954 2.161956675 12.043067630126954 2.218490925 L 12.043067630126954 2.637896175 L 11.953664630126953 2.637896175 L 11.953664630126953 1.952911425 L 12.035179130126954 1.952911425 L 12.035179130126954 2.108051925 Q 12.062788880126954 2.0580914249999998 12.107490380126954 2.02062105 Q 12.152191880126953 1.9831506749999999 12.208726130126953 1.962114675 Q 12.265260380126954 1.941078675 12.325738880126954 1.941078675 Q 12.382273130126954 1.941078675 12.421715630126954 1.962114675 Q 12.461158130126954 1.9831506749999999 12.484823630126954 2.0219357999999996 Q 12.508489130126954 2.060720925 12.519007130126953 2.11528305 Q 12.529525130126954 2.169845175 12.529525130126954 2.236897425 L 12.529525130126954 2.637896175 M 13.015992901611328 2.651043675 Q 12.942366901611328 2.651043675 12.879258901611328 2.6227765499999998 Q 12.816150901611328 2.594509425 12.770134651611329 2.5452063 Q 12.724118401611328 2.495903175 12.698480776611328 2.4314804249999997 Q 12.672843151611328 2.367057675 12.672843151611328 2.293431675 Q 12.672843151611328 2.1974549249999997 12.71688727661133 2.117255175 Q 12.760931401611328 2.037055425 12.83850165161133 1.9890670499999998 Q 12.916071901611328 1.941078675 13.014678151611328 1.941078675 Q 13.115913901611329 1.941078675 13.191512026611328 1.989724425 Q 13.267110151611329 2.038370175 13.310496901611328 2.11791255 Q 13.353883651611328 2.1974549249999997 13.353883651611328 2.2921169249999997 Q 13.353883651611328 2.302634925 13.353883651611328 2.31249555 Q 13.353883651611328 2.322356175 13.352568901611328 2.327615175 L 12.766190401611329 2.327615175 Q 12.772764151611328 2.401241175 12.807605026611329 2.4584327999999998 Q 12.84244590161133 2.515624425 12.898322776611328 2.54915055 Q 12.95419965161133 2.5826766749999996 13.019937151611328 2.5826766749999996 Q 13.086989401611328 2.5826766749999996 13.146810526611329 2.548493175 Q 13.206631651611328 2.514309675 13.230297151611328 2.459090175 L 13.307867401611329 2.4801261749999997 Q 13.286831401611328 2.528771925 13.243444651611329 2.568214425 Q 13.200057901611329 2.6076569249999997 13.141551526611329 2.6293503 Q 13.083045151611328 2.651043675 13.015992901611328 2.651043675 M 12.763560901611328 2.2631924249999997 L 13.269739651611328 2.2631924249999997 Q 13.26448065161133 2.188251675 13.229639776611329 2.1317174249999997 Q 13.194798901611328 2.075183175 13.13892202661133 2.0429718 Q 13.083045151611328 2.010760425 13.015992901611328 2.010760425 Q 12.948940651611329 2.010760425 12.893721151611329 2.0429718 Q 12.83850165161133 2.075183175 12.803660776611329 2.1323748 Q 12.768819901611328 2.1895664249999998 12.763560901611328 2.2631924249999997 M 13.716721911254883 2.651043675 Q 13.632577911254883 2.651043675 13.560266661254882 2.623433925 Q 13.487955411254882 2.5958241749999997 13.435365411254882 2.539289925 L 13.472178411254882 2.4761819249999997 Q 13.530027411254883 2.5300866749999997 13.588533786254882 2.55440955 Q 13.647040161254882 2.5787324249999997 13.712777661254883 2.5787324249999997 Q 13.792977411254883 2.5787324249999997 13.842937911254882 2.54652105 Q 13.892898411254883 2.514309675 13.892898411254883 2.453831175 Q 13.892898411254883 2.413073925 13.868575536254882 2.39138055 Q 13.844252661254883 2.3696871749999997 13.798893786254883 2.3558822999999998 Q 13.753534911254883 2.342077425 13.690426911254882 2.326300425 Q 13.619430411254882 2.306579175 13.571442036254883 2.2848857999999996 Q 13.523453661254882 2.2631924249999997 13.499130786254883 2.2296663 Q 13.474807911254883 2.196140175 13.474807911254883 2.142235425 Q 13.474807911254883 2.075183175 13.508334036254883 2.0311390499999997 Q 13.541860161254883 1.9870949249999998 13.600366536254883 1.9640868 Q 13.658872911254882 1.941078675 13.731184161254882 1.941078675 Q 13.810069161254882 1.941078675 13.870547661254882 1.966058925 Q 13.931026161254882 1.9910391749999998 13.969153911254882 2.035740675 L 13.925767161254882 2.096219175 Q 13.888954161254883 2.0541471749999998 13.838336286254883 2.03376855 Q 13.787718411254883 2.013389925 13.725925161254882 2.013389925 Q 13.683853161254882 2.013389925 13.645725411254883 2.0245653 Q 13.607597661254882 2.035740675 13.583274786254883 2.0613783 Q 13.558951911254882 2.0870159249999998 13.558951911254882 2.1317174249999997 Q 13.558951911254882 2.1685304249999997 13.577358411254883 2.18890905 Q 13.595764911254882 2.2092876749999997 13.632577911254883 2.2230925499999996 Q 13.669390911254883 2.236897425 13.723295661254882 2.252674425 Q 13.800865911254883 2.273710425 13.858714911254882 2.2954038 Q 13.916563911254883 2.317097175 13.948117911254883 2.351280675 Q 13.979671911254883 2.385464175 13.979671911254883 2.4472574249999997 Q 13.979671911254883 2.543234175 13.907360661254883 2.597138925 Q 13.835049411254882 2.651043675 13.716721911254883 2.651043675 M 14.35170828515625 2.651043675 Q 14.267564285156249 2.651043675 14.195253035156249 2.623433925 Q 14.122941785156248 2.5958241749999997 14.070351785156248 2.539289925 L 14.107164785156248 2.4761819249999997 Q 14.16501378515625 2.5300866749999997 14.223520160156248 2.55440955 Q 14.282026535156248 2.5787324249999997 14.34776403515625 2.5787324249999997 Q 14.42796378515625 2.5787324249999997 14.477924285156249 2.54652105 Q 14.52788478515625 2.514309675 14.52788478515625 2.453831175 Q 14.52788478515625 2.413073925 14.503561910156249 2.39138055 Q 14.47923903515625 2.3696871749999997 14.43388016015625 2.3558822999999998 Q 14.38852128515625 2.342077425 14.325413285156248 2.326300425 Q 14.254416785156248 2.306579175 14.20642841015625 2.2848857999999996 Q 14.158440035156248 2.2631924249999997 14.134117160156249 2.2296663 Q 14.10979428515625 2.196140175 14.10979428515625 2.142235425 Q 14.10979428515625 2.075183175 14.14332041015625 2.0311390499999997 Q 14.17684653515625 1.9870949249999998 14.23535291015625 1.9640868 Q 14.293859285156248 1.941078675 14.366170535156249 1.941078675 Q 14.445055535156248 1.941078675 14.505534035156249 1.966058925 Q 14.566012535156249 1.9910391749999998 14.604140285156248 2.035740675 L 14.560753535156248 2.096219175 Q 14.52394053515625 2.0541471749999998 14.47332266015625 2.03376855 Q 14.422704785156249 2.013389925 14.360911535156248 2.013389925 Q 14.318839535156249 2.013389925 14.28071178515625 2.0245653 Q 14.242584035156248 2.035740675 14.21826116015625 2.0613783 Q 14.193938285156248 2.0870159249999998 14.193938285156248 2.1317174249999997 Q 14.193938285156248 2.1685304249999997 14.21234478515625 2.18890905 Q 14.230751285156249 2.2092876749999997 14.267564285156249 2.2230925499999996 Q 14.30437728515625 2.236897425 14.358282035156249 2.252674425 Q 14.43585228515625 2.273710425 14.493701285156249 2.2954038 Q 14.55155028515625 2.317097175 14.58310428515625 2.351280675 Q 14.61465828515625 2.385464175 14.61465828515625 2.4472574249999997 Q 14.61465828515625 2.543234175 14.542347035156249 2.597138925 Q 14.470035785156249 2.651043675 14.35170828515625 2.651043675 M 15.67300057873535 2.637896175 L 15.583597578735349 2.637896175 L 15.583597578735349 2.2553039249999998 Q 15.583597578735349 2.134346925 15.548099328735349 2.07847005 Q 15.512601078735349 2.022593175 15.436345578735349 2.022593175 Q 15.383755578735348 2.022593175 15.332480328735349 2.0482308 Q 15.281205078735349 2.0738684249999997 15.242419953735348 2.11791255 Q 15.20363482873535 2.161956675 15.18654307873535 2.218490925 L 15.18654307873535 2.637896175 L 15.097140078735348 2.637896175 L 15.097140078735348 1.952911425 L 15.17865457873535 1.952911425 L 15.17865457873535 2.108051925 Q 15.20626432873535 2.0580914249999998 15.25096582873535 2.02062105 Q 15.295667328735348 1.9831506749999999 15.352201578735349 1.962114675 Q 15.408735828735349 1.941078675 15.46921432873535 1.941078675 Q 15.52574857873535 1.941078675 15.56519107873535 1.962114675 Q 15.60463357873535 1.9831506749999999 15.628299078735349 2.0219357999999996 Q 15.651964578735349 2.060720925 15.662482578735348 2.11528305 Q 15.67300057873535 2.169845175 15.67300057873535 2.236897425 L 15.67300057873535 2.637896175 M 16.159468350219722 2.651043675 Q 16.085842350219725 2.651043675 16.022734350219725 2.6227765499999998 Q 15.959626350219724 2.594509425 15.913610100219724 2.5452063 Q 15.867593850219723 2.495903175 15.841956225219723 2.4314804249999997 Q 15.816318600219724 2.367057675 15.816318600219724 2.293431675 Q 15.816318600219724 2.1974549249999997 15.860362725219725 2.117255175 Q 15.904406850219724 2.037055425 15.981977100219725 1.9890670499999998 Q 16.059547350219724 1.941078675 16.158153600219723 1.941078675 Q 16.259389350219724 1.941078675 16.334987475219723 1.989724425 Q 16.410585600219722 2.038370175 16.453972350219725 2.11791255 Q 16.497359100219725 2.1974549249999997 16.497359100219725 2.2921169249999997 Q 16.497359100219725 2.302634925 16.497359100219725 2.31249555 Q 16.497359100219725 2.322356175 16.496044350219723 2.327615175 L 15.909665850219724 2.327615175 Q 15.916239600219724 2.401241175 15.951080475219724 2.4584327999999998 Q 15.985921350219725 2.515624425 16.041798225219726 2.54915055 Q 16.097675100219725 2.5826766749999996 16.163412600219722 2.5826766749999996 Q 16.230464850219725 2.5826766749999996 16.290285975219724 2.548493175 Q 16.350107100219724 2.514309675 16.373772600219723 2.459090175 L 16.451342850219724 2.4801261749999997 Q 16.430306850219722 2.528771925 16.386920100219722 2.568214425 Q 16.343533350219722 2.6076569249999997 16.285026975219722 2.6293503 Q 16.226520600219725 2.651043675 16.159468350219722 2.651043675 M 15.907036350219723 2.2631924249999997 L 16.413215100219723 2.2631924249999997 Q 16.407956100219725 2.188251675 16.373115225219724 2.1317174249999997 Q 16.338274350219724 2.075183175 16.282397475219724 2.0429718 Q 16.226520600219725 2.010760425 16.159468350219722 2.010760425 Q 16.092416100219722 2.010760425 16.037196600219723 2.0429718 Q 15.981977100219725 2.075183175 15.947136225219724 2.1323748 Q 15.912295350219724 2.1895664249999998 15.907036350219723 2.2631924249999997 M 16.931193859863278 2.651043675 Q 16.85756785986328 2.651043675 16.79445985986328 2.6227765499999998 Q 16.73135185986328 2.594509425 16.68533560986328 2.5452063 Q 16.63931935986328 2.495903175 16.61368173486328 2.4314804249999997 Q 16.58804410986328 2.367057675 16.58804410986328 2.293431675 Q 16.58804410986328 2.1974549249999997 16.63208823486328 2.117255175 Q 16.67613235986328 2.037055425 16.75370260986328 1.9890670499999998 Q 16.83127285986328 1.941078675 16.92987910986328 1.941078675 Q 17.03111485986328 1.941078675 17.10671298486328 1.989724425 Q 17.182311109863278 2.038370175 17.22569785986328 2.11791255 Q 17.26908460986328 2.1974549249999997 17.26908460986328 2.2921169249999997 Q 17.26908460986328 2.302634925 17.26908460986328 2.31249555 Q 17.26908460986328 2.322356175 17.26776985986328 2.327615175 L 16.68139135986328 2.327615175 Q 16.68796510986328 2.401241175 16.722805984863278 2.4584327999999998 Q 16.75764685986328 2.515624425 16.81352373486328 2.54915055 Q 16.86940060986328 2.5826766749999996 16.93513810986328 2.5826766749999996 Q 17.00219035986328 2.5826766749999996 17.06201148486328 2.548493175 Q 17.12183260986328 2.514309675 17.14549810986328 2.459090175 L 17.22306835986328 2.4801261749999997 Q 17.20203235986328 2.528771925 17.158645609863278 2.568214425 Q 17.115258859863278 2.6076569249999997 17.056752484863278 2.6293503 Q 16.99824610986328 2.651043675 16.931193859863278 2.651043675 M 16.67876185986328 2.2631924249999997 L 17.18494060986328 2.2631924249999997 Q 17.17968160986328 2.188251675 17.14484073486328 2.1317174249999997 Q 17.10999985986328 2.075183175 17.05412298486328 2.0429718 Q 16.99824610986328 2.010760425 16.931193859863278 2.010760425 Q 16.864141609863278 2.010760425 16.80892210986328 2.0429718 Q 16.75370260986328 2.075183175 16.718861734863278 2.1323748 Q 16.68402085986328 2.1895664249999998 16.67876185986328 2.2631924249999997 M 17.361084369506834 2.297375925 Q 17.361084369506834 2.200084425 17.401184244506837 2.1192273 Q 17.441284119506836 2.038370175 17.512280619506836 1.989724425 Q 17.583277119506835 1.941078675 17.673994869506835 1.941078675 Q 17.759453619506836 1.941078675 17.827163244506835 1.9864375499999998 Q 17.894872869506834 2.031796425 17.933000619506835 2.096219175 L 17.933000619506835 1.678128675 L 18.022403619506836 1.678128675 L 18.022403619506836 2.5300866749999997 Q 18.022403619506836 2.548493175 18.030292119506836 2.5570390499999998 Q 18.038180619506836 2.565584925 18.053957619506836 2.5668996749999997 L 18.053957619506836 2.637896175 Q 18.027662619506835 2.641840425 18.013200369506837 2.6405256749999997 Q 17.985590619506837 2.639210925 17.964554619506835 2.618174925 Q 17.943518619506836 2.597138925 17.943518619506836 2.572158675 L 17.943518619506836 2.5051064249999997 Q 17.902761369506834 2.572158675 17.833079619506837 2.6116011749999997 Q 17.763397869506836 2.651043675 17.688457119506836 2.651043675 Q 17.617460619506836 2.651043675 17.557639494506834 2.622119175 Q 17.497818369506835 2.593194675 17.453774244506835 2.543234175 Q 17.409730119506836 2.4932736749999997 17.385407244506837 2.4295082999999997 Q 17.361084369506834 2.3657429249999997 17.361084369506834 2.297375925 M 17.933000619506835 2.4025559249999997 L 17.933000619506835 2.190881175 Q 17.915908869506836 2.1435501749999997 17.877781119506835 2.10476505 Q 17.839653369506834 2.0659799249999997 17.791664994506835 2.0429718 Q 17.743676619506836 2.0199636749999996 17.696345619506836 2.0199636749999996 Q 17.641126119506836 2.0199636749999996 17.596424619506834 2.0429718 Q 17.551723119506836 2.0659799249999997 17.519511744506836 2.105422425 Q 17.487300369506837 2.144864925 17.470208619506835 2.194825425 Q 17.453116869506836 2.244785925 17.453116869506836 2.297375925 Q 17.453116869506836 2.3525954249999996 17.472180744506836 2.4025559249999997 Q 17.491244619506837 2.4525164249999998 17.526742869506837 2.4913015499999998 Q 17.562241119506837 2.5300866749999997 17.608257369506834 2.551122675 Q 17.654273619506835 2.572158675 17.708178369506836 2.572158675 Q 17.742361869506837 2.572158675 17.779174869506836 2.5590111749999997 Q 17.815987869506834 2.5458636749999997 17.849513994506836 2.52285555 Q 17.883040119506834 2.499847425 17.905390869506835 2.4682934249999997 Q 17.927741619506836 2.436739425 17.933000619506835 2.4025559249999997 M 18.44970956689453 2.651043675 Q 18.36556556689453 2.651043675 18.293254316894533 2.623433925 Q 18.22094306689453 2.5958241749999997 18.168353066894532 2.539289925 L 18.20516606689453 2.4761819249999997 Q 18.263015066894532 2.5300866749999997 18.321521441894532 2.55440955 Q 18.380027816894533 2.5787324249999997 18.44576531689453 2.5787324249999997 Q 18.525965066894532 2.5787324249999997 18.575925566894533 2.54652105 Q 18.62588606689453 2.514309675 18.62588606689453 2.453831175 Q 18.62588606689453 2.413073925 18.60156319189453 2.39138055 Q 18.57724031689453 2.3696871749999997 18.53188144189453 2.3558822999999998 Q 18.486522566894532 2.342077425 18.423414566894532 2.326300425 Q 18.352418066894533 2.306579175 18.30442969189453 2.2848857999999996 Q 18.25644131689453 2.2631924249999997 18.23211844189453 2.2296663 Q 18.207795566894532 2.196140175 18.207795566894532 2.142235425 Q 18.207795566894532 2.075183175 18.24132169189453 2.0311390499999997 Q 18.274847816894532 1.9870949249999998 18.333354191894532 1.9640868 Q 18.391860566894533 1.941078675 18.46417181689453 1.941078675 Q 18.54305681689453 1.941078675 18.603535316894533 1.966058925 Q 18.66401381689453 1.9910391749999998 18.702141566894532 2.035740675 L 18.658754816894533 2.096219175 Q 18.62194181689453 2.0541471749999998 18.57132394189453 2.03376855 Q 18.52070606689453 2.013389925 18.458912816894532 2.013389925 Q 18.41684081689453 2.013389925 18.37871306689453 2.0245653 Q 18.340585316894533 2.035740675 18.31626244189453 2.0613783 Q 18.29193956689453 2.0870159249999998 18.29193956689453 2.1317174249999997 Q 18.29193956689453 2.1685304249999997 18.31034606689453 2.18890905 Q 18.328752566894533 2.2092876749999997 18.36556556689453 2.2230925499999996 Q 18.40237856689453 2.236897425 18.45628331689453 2.252674425 Q 18.533853566894532 2.273710425 18.591702566894533 2.2954038 Q 18.64955156689453 2.317097175 18.68110556689453 2.351280675 Q 18.71265956689453 2.385464175 18.71265956689453 2.4472574249999997 Q 18.71265956689453 2.543234175 18.64034831689453 2.597138925 Q 18.568037066894533 2.651043675 18.44970956689453 2.651043675" fill="#fffcf7" fill-rule="nonzero"></path></g></g><defs><clipPath id="SvgjsClipPath32596"><path d=" M 0 -14.347942669199817 h 11.240478450083755 v 13.827942669199818 h -11.240478450083755 Z"></path></clipPath><clipPath id="SvgjsClipPath325940ea1c7fe-5685-411f-acc5-4726dec39911"><path d=" M 0 -14.347942669199817 L 11.240478450083755 -14.347942669199817 L 11.240478450083755 -0.5199999999999996 L 0 -0.5199999999999996 Z"></path></clipPath></defs></svg>