<svg xmlns="http://www.w3.org/2000/svg" version="1.1" xmlns:xlink="http://www.w3.org/1999/xlink" xmlns:svgjs="http://svgjs.dev/svgjs" viewBox="0 0 24.109233963618344 20.266828368707998"><g transform="matrix(0.8456903452040072,0,0,0.8456903452040072,3.42382742985337,16.128182027457044)"><g transform="matrix(1,0,0,1,0,0)" clip-path="url(#SvgjsClipPath104617)"><g clip-path="url(#SvgjsClipPath1046155c0ef4f0-8c13-4d32-b671-ea7a5c78bf2a)"><path d=" M 9.672824192716352 -13.194656751417693 C 9.46314372649834 -13.195075172208325 9.286127073876667 -13.350577836192716 9.25869260937952 -13.55845622166633 L 9.25478078711879 -13.58818607084797 C 9.211485497714204 -13.91554745431627 8.933019749933406 -14.160597312363379 8.602810410329067 -14.161920002422924 C 8.272601070724726 -14.160597312363379 7.994135322943928 -13.91554745431627 7.9508400335393485 -13.58818607084797 L 7.946928211278613 -13.558717009817054 C 7.9200914876727175 -13.350321235951288 7.742912675931565 -13.19411825330797 7.532796627941787 -13.193613598814796 L 7.437087376629057 -13.193613598814796 C 7.326422867949665 -13.193613598814796 7.2202908894340325 -13.237574903717467 7.142039264910165 -13.315826528241352 C 7.0637876403862965 -13.394078152765239 7.019826335483634 -13.500210131280854 7.019826335483634 -13.610874639960228 L 7.019826335483634 -15.008177551495969 C 7.020824946322153 -15.208395295317958 7.182886485608857 -15.370456834604644 7.383104229430854 -15.371455445443189 L 9.730197585873857 -15.371455445443189 C 9.930770819399546 -15.371311613739445 10.09333164811736 -15.208750785021648 10.093475479821105 -15.008177551495969 L 10.093475479821105 -13.610874639960228 C 10.093201464331486 -13.49980113738595 10.048652692045241 -13.393420902884603 9.969696654903036 -13.31529701244508 C 9.89074061776084 -13.237173122005593 9.783894364172877 -13.193753938468952 9.672824192716345 -13.194656751417693 Z M 8.601767257726195 -14.51841740445152 C 9.111624030217794 -14.517827748382713 9.54225781423343 -14.139824504516078 9.608931095790945 -13.634345573524692 L 9.61284291805169 -13.60435493619236 C 9.617010056502673 -13.574431854164715 9.642612355982646 -13.552168985051686 9.672824192716345 -13.552197306049152 C 9.70623899462619 -13.552197306049152 9.733327043682412 -13.579285355105382 9.73332704368242 -13.61270015701523 L 9.73332704368242 -15.010003068550937 L 7.380757136074405 -15.016261984168146 L 7.374759008607935 -15.010003068550937 L 7.374759008607935 -13.61270015701523 C 7.374759009105864 -13.579285354203808 7.401847058565737 -13.552197305551232 7.435261860475594 -13.552197306049152 L 7.530971110886751 -13.552197306049152 C 7.561182947620441 -13.552168985051686 7.586785247100414 -13.574431854164715 7.590952385551398 -13.60435493619236 L 7.594864207812142 -13.633823997223244 C 7.661285569546623 -14.139411691006291 8.091835749134592 -14.51766245743009 8.601767257726195 -14.51841740445152 Z" fill="#fffcf7" transform="matrix(1,0,0,1,0,0)" fill-rule="nonzero"></path></g><g clip-path="url(#SvgjsClipPath1046155c0ef4f0-8c13-4d32-b671-ea7a5c78bf2a)"><path d=" M 15.821947998446282 -0.6752607881507569 L 9.990203372137584 -0.6752607881507569 C 9.793230870633494 -0.6754046162487857 9.63358901005627 -0.8350464768260206 9.633445181958248 -1.032018978330111 L 9.633445181958248 -9.22963370793332 C 9.63358913686219 -9.426563963940229 9.793273063515533 -9.586131162577024 9.990203372137541 -9.58613110996195 L 15.821947998446282 -9.58613110996195 C 16.01881880582645 -9.585987513649519 16.178418628343515 -9.426504357669415 16.178706188625615 -9.22963370793332 L 16.178706188625615 -1.032018978330111 C 16.17856236052759 -0.8350464768260206 16.01892049995036 -0.6754046162487857 15.821947998446273 -0.6752607881507569 Z M 9.990203372137584 -9.229112131631872 L 9.990203372137584 -1.0320189783300755 L 15.821947998446282 -1.0320189783300755 L 15.821947998446282 -9.228851343481182 Z" fill="#fffcf7" transform="matrix(1,0,0,1,0,0)" fill-rule="nonzero"></path></g><g clip-path="url(#SvgjsClipPath1046155c0ef4f0-8c13-4d32-b671-ea7a5c78bf2a)"><path d=" M 15.31132479934457 -7.380384931206918 L 10.501869723842159 -7.380384931206918 L 10.501869723842159 -8.71744577992727 L 15.310803223043143 -8.71744577992727 Z M 10.859671066624355 -7.737664697687686 L 14.954045032863801 -7.737664697687686 L 14.954045032863801 -8.360166013446502 L 10.859671066624355 -8.360166013446502 Z" fill="#fffcf7" transform="matrix(1,0,0,1,0,0)" fill-rule="nonzero"></path></g><g clip-path="url(#SvgjsClipPath1046155c0ef4f0-8c13-4d32-b671-ea7a5c78bf2a)"><path d=" M 15.31132479934457 -1.6002763587399933 L 10.501869723842159 -1.6002763587399933 L 10.501869723842159 -6.219095296069067 L 15.310803223043143 -6.219095296069067 Z M 10.859671066624355 -1.957556125220762 L 14.954045032863801 -1.957556125220762 L 14.954045032863801 -5.862076317739023 L 10.859671066624355 -5.862076317739023 Z" fill="#fffcf7" transform="matrix(1,0,0,1,0,0)" fill-rule="nonzero"></path></g><g clip-path="url(#SvgjsClipPath1046155c0ef4f0-8c13-4d32-b671-ea7a5c78bf2a)"><path d=" M 11.619607737810455 -4.988957589142226 L 11.976887504291222 -4.988957589142226 L 11.976887504291222 -1.7789162419803564 L 11.619607737810455 -1.7789162419803564 Z" fill="#fffcf7" transform="matrix(1,0,0,1,0,0)" fill-rule="nonzero"></path></g><g clip-path="url(#SvgjsClipPath1046155c0ef4f0-8c13-4d32-b671-ea7a5c78bf2a)"><path d=" M 12.728218166503696 -6.0404554128286865 L 13.085497932984461 -6.0404554128286865 L 13.085497932984461 -1.7494471809494598 L 12.728218166503696 -1.7494471809494598 Z" fill="#fffcf7" transform="matrix(1,0,0,1,0,0)" fill-rule="nonzero"></path></g><g clip-path="url(#SvgjsClipPath1046155c0ef4f0-8c13-4d32-b671-ea7a5c78bf2a)"><path d=" M 13.837089383347655 -6.01098635179779 L 14.19436914982842 -6.01098635179779 L 14.19436914982842 -1.719978119918565 L 13.837089383347655 -1.719978119918565 Z" fill="#fffcf7" transform="matrix(1,0,0,1,0,0)" fill-rule="nonzero"></path></g><g clip-path="url(#SvgjsClipPath1046155c0ef4f0-8c13-4d32-b671-ea7a5c78bf2a)"><path d=" M 10.681031183383972 -5.182201608822698 L 15.132684916104186 -5.182201608822698 L 15.132684916104186 -4.824921842341933 L 10.681031183383972 -4.824921842341933 Z" fill="#fffcf7" transform="matrix(1,0,0,1,0,0)" fill-rule="nonzero"></path></g><g clip-path="url(#SvgjsClipPath1046155c0ef4f0-8c13-4d32-b671-ea7a5c78bf2a)"><path d=" M 10.681031183383972 -4.073591180129457 L 15.132684916104186 -4.073591180129457 L 15.132684916104186 -3.7163114136486897 L 10.681031183383972 -3.7163114136486897 Z" fill="#fffcf7" transform="matrix(1,0,0,1,0,0)" fill-rule="nonzero"></path></g><g clip-path="url(#SvgjsClipPath1046155c0ef4f0-8c13-4d32-b671-ea7a5c78bf2a)"><path d=" M 10.681031183383972 -2.964980751436215 L 15.132684916104186 -2.964980751436215 L 15.132684916104186 -2.60770098495545 L 10.681031183383972 -2.60770098495545 Z" fill="#fffcf7" transform="matrix(1,0,0,1,0,0)" fill-rule="nonzero"></path></g><g clip-path="url(#SvgjsClipPath1046155c0ef4f0-8c13-4d32-b671-ea7a5c78bf2a)"><path d=" M 13.085497932984463 -9.407491226721522 L 12.728218166503696 -9.407491226721522 L 12.728218166503696 -14.224248370443979 L 9.911966926922817 -14.224248370443979 L 9.911966926922817 -14.581528136924746 L 13.085497932984463 -14.581528136924746 L 13.085497932984463 -9.407491226721522 Z" fill="#fffcf7" transform="matrix(1,0,0,1,0,0)" fill-rule="nonzero"></path></g><g clip-path="url(#SvgjsClipPath1046155c0ef4f0-8c13-4d32-b671-ea7a5c78bf2a)"><path d=" M 9.81286742965078 -2.5623238467308855 L 4.231740216180054 -2.5623238467308855 L 4.231740216180054 -14.581528136924746 L 7.196119125367557 -14.581528136924746 L 7.196119125367557 -14.224248370443979 L 4.589019982660821 -14.224248370443979 L 4.589019982660821 -2.9196036132116507 L 9.81286742965078 -2.9196036132116507 L 9.81286742965078 -2.5623238467308855 Z" fill="#fffcf7" transform="matrix(1,0,0,1,0,0)" fill-rule="nonzero"></path></g><g clip-path="url(#SvgjsClipPath1046155c0ef4f0-8c13-4d32-b671-ea7a5c78bf2a)"><path d=" M 10.554027353985333 -11.835689698037186 L 6.508942348231189 -11.835689698037186 C 6.4102822650059785 -11.835689698037186 6.3303024649908135 -11.915669498052319 6.330302464990805 -12.014329581277554 C 6.330302464990805 -12.112989664502756 6.4102822650059705 -12.19296946451792 6.50894234823118 -12.19296946451792 L 10.554027353985333 -12.19296946451792 C 10.652585577749608 -12.192825583746037 10.732406554097508 -12.11288791006431 10.732406449074993 -12.014329581277554 C 10.73247568050276 -11.96697533531237 10.713712790061273 -11.921536888589412 10.680252713889393 -11.888027894177538 C 10.646792637717523 -11.854518899765598 10.601381650558324 -11.835689647429412 10.554027353985342 -11.835689698037186 Z" fill="#fffcf7" transform="matrix(1,0,0,1,0,0)" fill-rule="nonzero"></path></g><g clip-path="url(#SvgjsClipPath1046155c0ef4f0-8c13-4d32-b671-ea7a5c78bf2a)"><path d=" M 10.598882915908469 -10.779236899487099 L 6.55405869830504 -10.779236899487099 C 6.4553986150798295 -10.779236899487099 6.375418815064664 -10.859216699502266 6.375418815064656 -10.957876782727467 C 6.375418815064656 -11.056536865952701 6.4553986150798215 -11.136516665967834 6.554058698305022 -11.136516665967834 L 10.598882915908469 -11.136516665967834 C 10.697542999133681 -11.136516665967834 10.777522799148844 -11.056536865952701 10.777522799148851 -10.957876782727467 C 10.777522799148851 -10.859216699502266 10.697542999133695 -10.779236899487099 10.598882915908481 -10.779236899487099 Z" fill="#fffcf7" transform="matrix(1,0,0,1,0,0)" fill-rule="nonzero"></path></g></g><g><path d=" M 0.5559435 0.09290700000000007 Q 0.6983010000000001 0.09290700000000007 0.80544375 0.15734250000000016 Q 0.9125865000000001 0.22177800000000003 0.97177725 0.34240725000000005 Q 1.030968 0.4630365000000001 1.030968 0.635364 Q 1.030968 0.803196 0.9702787500000001 0.9290700000000001 Q 0.9095895 1.054944 0.8016975000000001 1.1253735 Q 0.6938055000000001 1.1958030000000002 0.554445 1.1958030000000002 Q 0.4120875 1.1958030000000002 0.30494475 1.1313675 Q 0.197802 1.066932 0.13861125 0.9455535 Q 0.0794205 0.8241750000000001 0.0794205 0.6533460000000001 Q 0.0794205 0.4855140000000001 0.140859 0.35964000000000007 Q 0.20229750000000002 0.23376600000000003 0.30944025000000003 0.1633365 Q 0.41658300000000004 0.09290700000000007 0.5559435 0.09290700000000007 M 0.5499495 0.11987999999999999 Q 0.45254700000000003 0.11987999999999999 0.380619 0.1873125000000001 Q 0.308691 0.2547450000000001 0.26898075 0.3731265 Q 0.22927050000000002 0.49150800000000006 0.22927050000000002 0.647352 Q 0.22927050000000002 0.8061930000000002 0.27347625000000003 0.9238252500000002 Q 0.317682 1.0414575000000001 0.39335625 1.10514375 Q 0.4690305 1.16883 0.560439 1.16883 Q 0.6578415 1.16883 0.7297695000000001 1.1013975 Q 0.8016975000000001 1.033965 0.84140775 0.9148342500000001 Q 0.8811180000000001 0.7957035000000001 0.8811180000000001 0.6413580000000001 Q 0.8811180000000001 0.4810185 0.83691225 0.36413550000000006 Q 0.7927065 0.2472525000000001 0.7177815000000001 0.18356625000000004 Q 0.6428565 0.11987999999999999 0.5499495 0.11987999999999999 M 1.750424571298828 0.3821175000000001 Q 1.807367571298828 0.3821175000000001 1.845579321298828 0.3971025 Q 1.8837910712988282 0.41208750000000005 1.9092655712988282 0.4390605000000001 Q 1.937737071298828 0.4690305 1.949725071298828 0.5139855000000001 Q 1.9617130712988282 0.5589405000000001 1.9617130712988282 0.635364 L 1.9617130712988282 1.0354635 Q 1.9617130712988282 1.0984005000000001 1.987936821298828 1.120878 Q 2.014160571298828 1.1433555000000002 2.075599071298828 1.1433555000000002 L 2.075599071298828 1.174824 Q 2.050124571298828 1.1733255 1.997677071298828 1.17107775 Q 1.9452295712988281 1.16883 1.895779071298828 1.16883 Q 1.846328571298828 1.16883 1.7991258212988281 1.17107775 Q 1.751923071298828 1.1733255 1.727947071298828 1.174824 L 1.727947071298828 1.1433555000000002 Q 1.7818930712988281 1.1433555000000002 1.804370571298828 1.120878 Q 1.8268480712988282 1.0984005000000001 1.8268480712988282 1.0354635 L 1.8268480712988282 0.6023970000000001 Q 1.8268480712988282 0.5559435 1.819355571298828 0.5169825000000001 Q 1.811863071298828 0.4780215000000001 1.7856393212988282 0.4540455000000001 Q 1.759415571298828 0.4300695000000001 1.7054695712988281 0.4300695000000001 Q 1.6425325712988281 0.4300695000000001 1.595329821298828 0.4660335000000001 Q 1.548127071298828 0.5019975000000001 1.521903321298828 0.5641852500000001 Q 1.495679571298828 0.6263730000000001 1.495679571298828 0.7027965 L 1.495679571298828 1.0354635 Q 1.495679571298828 1.0984005000000001 1.5181570712988282 1.120878 Q 1.540634571298828 1.1433555000000002 1.5945805712988281 1.1433555000000002 L 1.5945805712988281 1.174824 Q 1.5706045712988281 1.1733255 1.523401821298828 1.17107775 Q 1.476199071298828 1.16883 1.4267485712988281 1.16883 Q 1.377298071298828 1.16883 1.324850571298828 1.17107775 Q 1.2724030712988281 1.1733255 1.246928571298828 1.174824 L 1.246928571298828 1.1433555000000002 Q 1.308367071298828 1.1433555000000002 1.334590821298828 1.120878 Q 1.360814571298828 1.0984005000000001 1.360814571298828 1.0354635 L 1.360814571298828 0.5664330000000001 Q 1.360814571298828 0.49900050000000007 1.336838571298828 0.46678275 Q 1.312862571298828 0.4345650000000001 1.246928571298828 0.4345650000000001 L 1.246928571298828 0.4030965000000001 Q 1.294880571298828 0.40759200000000007 1.3398355712988281 0.40759200000000007 Q 1.3832920712988281 0.40759200000000007 1.423002321298828 0.40234725000000005 Q 1.462712571298828 0.3971025 1.495679571298828 0.3866130000000001 L 1.495679571298828 0.563436 Q 1.534640571298828 0.4615380000000001 1.604320821298828 0.42182775000000006 Q 1.674001071298828 0.3821175000000001 1.750424571298828 0.3821175000000001 M 3.129326740019531 0.11388600000000015 Q 3.397558240019531 0.11388600000000015 3.527927740019531 0.24800175000000002 Q 3.658297240019531 0.3821175000000001 3.658297240019531 0.6323670000000001 Q 3.658297240019531 0.7957035000000001 3.594610990019531 0.9178312500000001 Q 3.530924740019531 1.039959 3.409546240019531 1.1073915 Q 3.288167740019531 1.174824 3.115840240019531 1.174824 Q 3.093362740019531 1.174824 3.055900240019531 1.1733255 Q 3.018437740019531 1.1718270000000002 2.978727490019531 1.17107775 Q 2.939017240019531 1.1703285 2.906050240019531 1.1703285 Q 2.853602740019531 1.1703285 2.802653740019531 1.17107775 Q 2.751704740019531 1.1718270000000002 2.720236240019531 1.174824 L 2.720236240019531 1.144854 Q 2.771185240019531 1.1418570000000001 2.797408990019531 1.1328660000000002 Q 2.823632740019531 1.1238750000000002 2.832623740019531 1.096902 Q 2.841614740019531 1.0699290000000001 2.841614740019531 1.015983 L 2.841614740019531 0.27272700000000005 Q 2.841614740019531 0.21728250000000005 2.832623740019531 0.19105875000000005 Q 2.823632740019531 0.16483500000000006 2.797408990019531 0.15509474999999995 Q 2.771185240019531 0.14535450000000005 2.720236240019531 0.14385599999999998 L 2.720236240019531 0.11388600000000015 Q 2.751704740019531 0.1153845 2.802653740019531 0.11763225 Q 2.853602740019531 0.11987999999999999 2.903053240019531 0.11838150000000014 Q 2.955500740019531 0.11688300000000007 3.021434740019531 0.1153845 Q 3.087368740019531 0.11388600000000015 3.129326740019531 0.11388600000000015 M 3.091864240019531 0.14085900000000007 Q 3.022933240019531 0.14085900000000007 3.001954240019531 0.16633350000000013 Q 2.980975240019531 0.1918080000000001 2.980975240019531 0.26973 L 2.980975240019531 1.01898 Q 2.980975240019531 1.096902 3.002703490019531 1.1223765 Q 3.024431740019531 1.1478510000000002 3.093362740019531 1.1478510000000002 Q 3.256699240019531 1.1478510000000002 3.346609240019531 1.08866025 Q 3.436519240019531 1.0294695 3.472483240019531 0.9155835000000001 Q 3.508447240019531 0.8016975000000001 3.508447240019531 0.6383610000000001 Q 3.508447240019531 0.4705290000000001 3.468736990019531 0.3603892500000001 Q 3.429026740019531 0.2502495 3.338367490019531 0.19555425000000004 Q 3.247708240019531 0.14085900000000007 3.091864240019531 0.14085900000000007 M 4.2413822627343745 0.3821175000000001 Q 4.373250262734375 0.3821175000000001 4.4474260127343745 0.46228725000000004 Q 4.521601762734375 0.5424570000000001 4.521601762734375 0.7117875 L 3.992631262734375 0.7117875 L 3.9911327627343747 0.683316 L 4.377745762734374 0.683316 Q 4.380742762734375 0.6098895000000001 4.365757762734375 0.5477017500000001 Q 4.350772762734374 0.4855140000000001 4.318555012734374 0.44805150000000005 Q 4.286337262734374 0.4105890000000001 4.235388262734375 0.4105890000000001 Q 4.166457262734375 0.4105890000000001 4.113260512734374 0.47952000000000006 Q 4.060063762734375 0.548451 4.0495742627343745 0.6983010000000001 L 4.0540697627343745 0.7042950000000001 Q 4.051072762734375 0.7267725 4.0495742627343745 0.7537455000000001 Q 4.048075762734375 0.7807185000000001 4.048075762734375 0.8076915 Q 4.048075762734375 0.9095895 4.081042762734374 0.9830160000000001 Q 4.114009762734375 1.0564425000000002 4.167206512734375 1.09465425 Q 4.220403262734375 1.1328660000000002 4.277346262734374 1.1328660000000002 Q 4.322301262734375 1.1328660000000002 4.362760762734375 1.11863025 Q 4.403220262734375 1.1043945000000002 4.437685762734374 1.0714275 Q 4.472151262734375 1.0384605 4.4976257627343745 0.9830160000000001 L 4.527595762734375 0.9950040000000001 Q 4.5111122627343745 1.0444545 4.473649762734375 1.090908 Q 4.436187262734375 1.1373615000000001 4.379244262734375 1.16658225 Q 4.322301262734375 1.1958030000000002 4.247376262734375 1.1958030000000002 Q 4.139484262734375 1.1958030000000002 4.062311512734375 1.1463525 Q 3.985138762734375 1.096902 3.943930012734375 1.00923975 Q 3.902721262734375 0.9215775000000002 3.902721262734375 0.8076915 Q 3.902721262734375 0.6758235000000001 3.9446792627343745 0.5806687500000001 Q 3.9866372627343747 0.4855140000000001 4.063060762734374 0.43381575000000006 Q 4.139484262734375 0.3821175000000001 4.2413822627343745 0.3821175000000001 M 5.223006823535155 0.3821175000000001 Q 5.275454323535156 0.3821175000000001 5.3144153235351554 0.3971025 Q 5.353376323535156 0.41208750000000005 5.3788508235351555 0.4390605000000001 Q 5.407322323535156 0.4690305 5.417811823535156 0.5169825000000001 Q 5.428301323535155 0.5649345000000001 5.428301323535155 0.635364 L 5.428301323535155 1.0354635 Q 5.428301323535155 1.0984005000000001 5.454525073535156 1.120878 Q 5.480748823535156 1.1433555000000002 5.542187323535156 1.1433555000000002 L 5.542187323535156 1.174824 Q 5.516712823535156 1.1733255 5.464265323535155 1.17107775 Q 5.411817823535156 1.16883 5.362367323535156 1.16883 Q 5.312916823535156 1.16883 5.265714073535156 1.17107775 Q 5.2185113235351555 1.1733255 5.194535323535156 1.174824 L 5.194535323535156 1.1433555000000002 Q 5.248481323535156 1.1433555000000002 5.270958823535156 1.120878 Q 5.293436323535156 1.0984005000000001 5.293436323535156 1.0354635 L 5.293436323535156 0.6023970000000001 Q 5.293436323535156 0.5559435 5.2874423235351555 0.5169825000000001 Q 5.281448323535155 0.4780215000000001 5.257472323535156 0.4540455000000001 Q 5.233496323535156 0.4300695000000001 5.179550323535156 0.4300695000000001 Q 5.121108823535156 0.4300695000000001 5.075404573535156 0.4660335000000001 Q 5.029700323535156 0.5019975000000001 5.003476573535155 0.5641852500000001 Q 4.977252823535156 0.6263730000000001 4.977252823535156 0.7027965 L 4.977252823535156 1.0354635 Q 4.977252823535156 1.0984005000000001 4.999730323535156 1.120878 Q 5.0222078235351555 1.1433555000000002 5.076153823535155 1.1433555000000002 L 5.076153823535155 1.174824 Q 5.052177823535156 1.1733255 5.004975073535156 1.17107775 Q 4.957772323535155 1.16883 4.908321823535156 1.16883 Q 4.858871323535156 1.16883 4.806423823535155 1.17107775 Q 4.753976323535156 1.1733255 4.728501823535155 1.174824 L 4.728501823535155 1.1433555000000002 Q 4.789940323535156 1.1433555000000002 4.816164073535155 1.120878 Q 4.842387823535156 1.0984005000000001 4.842387823535156 1.0354635 L 4.842387823535156 0.5664330000000001 Q 4.842387823535156 0.49900050000000007 4.818411823535156 0.46678275 Q 4.794435823535156 0.4345650000000001 4.728501823535155 0.4345650000000001 L 4.728501823535155 0.4030965000000001 Q 4.776453823535156 0.40759200000000007 4.8214088235351555 0.40759200000000007 Q 4.864865323535156 0.40759200000000007 4.904575573535156 0.40234725000000005 Q 4.9442858235351554 0.3971025 4.977252823535156 0.3866130000000001 L 4.977252823535156 0.563436 Q 5.016213823535156 0.4660335000000001 5.083646323535156 0.42407550000000005 Q 5.151078823535156 0.3821175000000001 5.223006823535155 0.3821175000000001 M 5.674055323535156 0.3821175000000001 Q 5.726502823535156 0.3821175000000001 5.765463823535155 0.3971025 Q 5.804424823535156 0.41208750000000005 5.829899323535155 0.4390605000000001 Q 5.8583708235351555 0.4690305 5.868860323535156 0.5169825000000001 Q 5.879349823535156 0.5649345000000001 5.879349823535156 0.635364 L 5.879349823535156 1.0354635 Q 5.879349823535156 1.0984005000000001 5.905573573535156 1.120878 Q 5.9317973235351555 1.1433555000000002 5.993235823535156 1.1433555000000002 L 5.993235823535156 1.174824 Q 5.967761323535155 1.1733255 5.915313823535156 1.17107775 Q 5.8628663235351555 1.16883 5.813415823535156 1.16883 Q 5.763965323535156 1.16883 5.7167625735351555 1.17107775 Q 5.669559823535156 1.1733255 5.645583823535156 1.174824 L 5.645583823535156 1.1433555000000002 Q 5.699529823535156 1.1433555000000002 5.722007323535156 1.120878 Q 5.7444848235351555 1.0984005000000001 5.7444848235351555 1.0354635 L 5.7444848235351555 0.6023970000000001 Q 5.7444848235351555 0.5559435 5.738490823535155 0.5169825000000001 Q 5.732496823535156 0.4780215000000001 5.708520823535156 0.4540455000000001 Q 5.6845448235351554 0.4300695000000001 5.630598823535156 0.4300695000000001 Q 5.572157323535156 0.4300695000000001 5.526453073535156 0.4660335000000001 Q 5.480748823535156 0.5019975000000001 5.454525073535156 0.563436 Q 5.428301323535155 0.6248745000000001 5.428301323535155 0.7012980000000001 L 5.423805823535155 0.5619375000000001 Q 5.464265323535155 0.4585410000000001 5.533196323535155 0.4203292500000001 Q 5.602127323535155 0.3821175000000001 5.674055323535156 0.3821175000000001 M 6.364999420224609 1.1853135000000001 Q 6.303560920224609 1.1853135000000001 6.258605920224609 1.16208675 Q 6.213650920224609 1.13886 6.190424170224609 1.096902 Q 6.167197420224609 1.054944 6.167197420224609 0.9994995000000001 Q 6.167197420224609 0.9335655 6.1979166702246085 0.8916075000000001 Q 6.228635920224609 0.8496495000000001 6.276587920224609 0.8241750000000001 Q 6.324539920224609 0.7987005 6.377736670224609 0.78146775 Q 6.4309334202246085 0.764235 6.478885420224609 0.74850075 Q 6.526837420224609 0.7327665000000001 6.557556670224609 0.7117875 Q 6.588275920224609 0.6908085 6.588275920224609 0.6563430000000001 L 6.588275920224609 0.563436 Q 6.588275920224609 0.500499 6.569544670224609 0.46753200000000006 Q 6.550813420224609 0.4345650000000001 6.519344920224609 0.42332625 Q 6.487876420224609 0.41208750000000005 6.448915420224609 0.41208750000000005 Q 6.411452920224609 0.41208750000000005 6.368745670224609 0.4225770000000001 Q 6.3260384202246085 0.4330665 6.300563920224609 0.4660335000000001 Q 6.329035420224609 0.47202750000000004 6.350014420224609 0.49600350000000004 Q 6.370993420224609 0.5199795 6.370993420224609 0.5574420000000001 Q 6.370993420224609 0.5949045000000001 6.347017420224609 0.6166327500000001 Q 6.323041420224609 0.6383610000000001 6.285578920224609 0.6383610000000001 Q 6.242122420224609 0.6383610000000001 6.221892670224609 0.6106387500000001 Q 6.201662920224609 0.5829165000000001 6.201662920224609 0.548451 Q 6.201662920224609 0.5094900000000001 6.2211434202246085 0.4855140000000001 Q 6.240623920224609 0.4615380000000001 6.270593920224609 0.44055900000000003 Q 6.305059420224609 0.41658300000000004 6.359754670224609 0.39935025 Q 6.414449920224609 0.3821175000000001 6.483380920224609 0.3821175000000001 Q 6.544819420224609 0.3821175000000001 6.588275920224609 0.3963532500000001 Q 6.631732420224609 0.4105890000000001 6.660203920224609 0.4375620000000001 Q 6.699164920224609 0.4735260000000001 6.711152920224609 0.5252242500000001 Q 6.723140920224609 0.5769225000000001 6.723140920224609 0.6488505000000001 L 6.723140920224609 1.0654335000000001 Q 6.723140920224609 1.102896 6.734379670224609 1.1193795000000002 Q 6.745618420224609 1.135863 6.7695944202246086 1.135863 Q 6.786077920224609 1.135863 6.801062920224609 1.1283705000000002 Q 6.816047920224609 1.120878 6.837026920224609 1.1043945000000002 L 6.853510420224609 1.129869 Q 6.822041920224609 1.153845 6.793570420224609 1.1695792500000002 Q 6.765098920224609 1.1853135000000001 6.717146920224609 1.1853135000000001 Q 6.673690420224609 1.1853135000000001 6.645218920224609 1.1703285 Q 6.616747420224609 1.1553435 6.602511670224609 1.1261227500000002 Q 6.588275920224609 1.096902 6.588275920224609 1.0519470000000002 Q 6.547816420224609 1.1193795000000002 6.491622670224609 1.1523465000000002 Q 6.435428920224609 1.1853135000000001 6.364999420224609 1.1853135000000001 M 6.418945420224609 1.1253735 Q 6.468395920224609 1.1253735 6.511103170224609 1.096902 Q 6.553810420224609 1.0684305 6.588275920224609 1.0114875 L 6.588275920224609 0.7177815000000001 Q 6.570293920224609 0.7432560000000001 6.535828420224609 0.7604887500000002 Q 6.501362920224609 0.7777215000000001 6.460903420224609 0.7949542500000001 Q 6.420443920224609 0.8121870000000001 6.383730670224609 0.8354137500000001 Q 6.347017420224609 0.8586405000000001 6.323041420224609 0.8961030000000001 Q 6.299065420224609 0.9335655 6.299065420224609 0.9935055000000002 Q 6.299065420224609 1.0534455 6.331283170224609 1.0894095000000001 Q 6.363500920224609 1.1253735 6.418945420224609 1.1253735 M 7.494982066230468 0.3821175000000001 Q 7.551925066230468 0.3821175000000001 7.590136816230467 0.3971025 Q 7.628348566230468 0.41208750000000005 7.653823066230468 0.4390605000000001 Q 7.682294566230468 0.4690305 7.694282566230468 0.5139855000000001 Q 7.706270566230468 0.5589405000000001 7.706270566230468 0.635364 L 7.706270566230468 1.0354635 Q 7.706270566230468 1.0984005000000001 7.732494316230468 1.120878 Q 7.758718066230468 1.1433555000000002 7.820156566230468 1.1433555000000002 L 7.820156566230468 1.174824 Q 7.794682066230468 1.1733255 7.742234566230468 1.17107775 Q 7.689787066230468 1.16883 7.640336566230468 1.16883 Q 7.590886066230468 1.16883 7.543683316230468 1.17107775 Q 7.496480566230468 1.1733255 7.472504566230468 1.174824 L 7.472504566230468 1.1433555000000002 Q 7.5264505662304675 1.1433555000000002 7.548928066230468 1.120878 Q 7.571405566230468 1.0984005000000001 7.571405566230468 1.0354635 L 7.571405566230468 0.6023970000000001 Q 7.571405566230468 0.5559435 7.563913066230468 0.5169825000000001 Q 7.556420566230468 0.4780215000000001 7.530196816230468 0.4540455000000001 Q 7.503973066230468 0.4300695000000001 7.450027066230468 0.4300695000000001 Q 7.387090066230468 0.4300695000000001 7.339887316230468 0.4660335000000001 Q 7.292684566230468 0.5019975000000001 7.266460816230468 0.5641852500000001 Q 7.240237066230468 0.6263730000000001 7.240237066230468 0.7027965 L 7.240237066230468 1.0354635 Q 7.240237066230468 1.0984005000000001 7.262714566230468 1.120878 Q 7.285192066230468 1.1433555000000002 7.3391380662304675 1.1433555000000002 L 7.3391380662304675 1.174824 Q 7.315162066230468 1.1733255 7.267959316230468 1.17107775 Q 7.220756566230468 1.16883 7.171306066230468 1.16883 Q 7.121855566230468 1.16883 7.0694080662304675 1.17107775 Q 7.016960566230468 1.1733255 6.991486066230467 1.174824 L 6.991486066230467 1.1433555000000002 Q 7.052924566230468 1.1433555000000002 7.079148316230468 1.120878 Q 7.105372066230468 1.0984005000000001 7.105372066230468 1.0354635 L 7.105372066230468 0.5664330000000001 Q 7.105372066230468 0.49900050000000007 7.081396066230468 0.46678275 Q 7.057420066230468 0.4345650000000001 6.991486066230467 0.4345650000000001 L 6.991486066230467 0.4030965000000001 Q 7.039438066230468 0.40759200000000007 7.084393066230468 0.40759200000000007 Q 7.127849566230468 0.40759200000000007 7.167559816230468 0.40234725000000005 Q 7.207270066230468 0.3971025 7.240237066230468 0.3866130000000001 L 7.240237066230468 0.563436 Q 7.279198066230468 0.4615380000000001 7.348878316230468 0.42182775000000006 Q 7.418558566230468 0.3821175000000001 7.494982066230468 0.3821175000000001 M 8.660927248857421 0 L 8.660927248857421 1.0114875 Q 8.660927248857421 1.07892 8.68565249885742 1.1111377500000001 Q 8.710377748857422 1.1433555000000002 8.774813248857422 1.1433555000000002 L 8.774813248857422 1.174824 Q 8.728359748857422 1.1703285 8.681906248857421 1.1703285 Q 8.638449748857422 1.1703285 8.598739498857421 1.174824 Q 8.55902924885742 1.1793195 8.526062248857421 1.1913075000000002 L 8.526062248857421 0.1798200000000001 Q 8.526062248857421 0.11238750000000008 8.50208624885742 0.08016975000000004 Q 8.478110248857421 0.047951999999999995 8.41217624885742 0.047951999999999995 L 8.41217624885742 0.016483500000000095 Q 8.460128248857421 0.02097900000000008 8.50508324885742 0.02097900000000008 Q 8.54853974885742 0.02097900000000008 8.588249998857421 0.01573424999999995 Q 8.627960248857422 0.01048950000000004 8.660927248857421 0 M 8.346242248857422 0.3821175000000001 Q 8.41217624885742 0.3821175000000001 8.469868498857421 0.4135860000000001 Q 8.527560748857422 0.4450545 8.547041248857422 0.5214780000000001 L 8.527560748857422 0.536463 Q 8.506581748857421 0.4735260000000001 8.462375998857421 0.4450545 Q 8.418170248857422 0.41658300000000004 8.35823024885742 0.41658300000000004 Q 8.269818748857421 0.41658300000000004 8.21062799885742 0.5079915 Q 8.151437248857421 0.5994 8.152935748857422 0.7897095000000001 Q 8.152935748857422 0.9110880000000001 8.17616249885742 0.99125775 Q 8.199389248857422 1.0714275 8.245093498857422 1.1111377500000001 Q 8.290797748857422 1.150848 8.35673174885742 1.150848 Q 8.419668748857422 1.150848 8.470617748857421 1.096902 Q 8.52156674885742 1.042956 8.53205624885742 0.938061 L 8.55003824885742 0.9590400000000001 Q 8.538050248857422 1.072926 8.47736099885742 1.1343645 Q 8.416671748857421 1.1958030000000002 8.31327524885742 1.1958030000000002 Q 8.22036824885742 1.1958030000000002 8.150687998857421 1.150848 Q 8.081007748857422 1.105893 8.044294498857422 1.015983 Q 8.007581248857422 0.9260730000000001 8.007581248857422 0.7897095000000001 Q 8.007581248857422 0.6533460000000001 8.05478399885742 0.5626867500000001 Q 8.10198674885742 0.47202750000000004 8.179159498857421 0.4270725000000001 Q 8.25633224885742 0.3821175000000001 8.346242248857422 0.3821175000000001 M 9.92146108798828 0.09290700000000007 Q 10.063818587988282 0.09290700000000007 10.170961337988281 0.15734250000000016 Q 10.27810408798828 0.22177800000000003 10.337294837988281 0.34240725000000005 Q 10.39648558798828 0.4630365000000001 10.39648558798828 0.635364 Q 10.39648558798828 0.803196 10.335796337988281 0.9290700000000001 Q 10.275107087988282 1.054944 10.16721508798828 1.1253735 Q 10.05932308798828 1.1958030000000002 9.91996258798828 1.1958030000000002 Q 9.777605087988281 1.1958030000000002 9.670462337988281 1.1313675 Q 9.56331958798828 1.066932 9.504128837988281 0.9455535 Q 9.44493808798828 0.8241750000000001 9.44493808798828 0.6533460000000001 Q 9.44493808798828 0.4855140000000001 9.506376587988282 0.35964000000000007 Q 9.567815087988281 0.23376600000000003 9.67495783798828 0.1633365 Q 9.78210058798828 0.09290700000000007 9.92146108798828 0.09290700000000007 M 9.915467087988281 0.11987999999999999 Q 9.818064587988282 0.11987999999999999 9.74613658798828 0.1873125000000001 Q 9.67420858798828 0.2547450000000001 9.634498337988282 0.3731265 Q 9.594788087988281 0.49150800000000006 9.594788087988281 0.647352 Q 9.594788087988281 0.8061930000000002 9.63899383798828 0.9238252500000002 Q 9.68319958798828 1.0414575000000001 9.758873837988281 1.10514375 Q 9.834548087988281 1.16883 9.925956587988281 1.16883 Q 10.02335908798828 1.16883 10.09528708798828 1.1013975 Q 10.16721508798828 1.033965 10.206925337988281 0.9148342500000001 Q 10.246635587988282 0.7957035000000001 10.246635587988282 0.6413580000000001 Q 10.246635587988282 0.4810185 10.20242983798828 0.36413550000000006 Q 10.15822408798828 0.2472525000000001 10.08329908798828 0.18356625000000004 Q 10.008374087988281 0.11987999999999999 9.915467087988281 0.11987999999999999 M 11.581961025498046 0.0029970000000001384 Q 11.644898025498048 0.0029970000000001384 11.697345525498047 0.014985000000000026 Q 11.749793025498047 0.026973000000000136 11.782760025498048 0.047951999999999995 Q 11.806736025498047 0.06293700000000002 11.820222525498046 0.08316674999999996 Q 11.833709025498047 0.10339650000000011 11.833709025498047 0.13036950000000003 Q 11.833709025498047 0.17082900000000012 11.805237525498047 0.1993005000000001 Q 11.776766025498047 0.22777200000000009 11.737805025498048 0.22777200000000009 Q 11.698844025498047 0.22777200000000009 11.670372525498047 0.1993005000000001 Q 11.641901025498047 0.17082900000000012 11.641901025498047 0.1318680000000001 Q 11.641901025498047 0.10489499999999996 11.655387525498046 0.08241750000000003 Q 11.668874025498047 0.059940000000000104 11.691351525498048 0.047951999999999995 Q 11.671871025498048 0.03596400000000011 11.641901025498047 0.030719249999999976 Q 11.611931025498047 0.025474500000000067 11.581961025498046 0.025474500000000067 Q 11.504039025498047 0.025474500000000067 11.451591525498047 0.056942999999999966 Q 11.399144025498048 0.08841150000000009 11.369174025498047 0.14085900000000007 Q 11.355687525498046 0.16633350000000013 11.346696525498047 0.20004975000000003 Q 11.337705525498047 0.23376600000000003 11.333210025498047 0.28246725000000006 Q 11.328714525498047 0.3311685000000001 11.328714525498047 0.40459500000000004 L 11.569973025498047 0.40459500000000004 Q 11.629913025498047 0.40459500000000004 11.673369525498046 0.4030965000000001 Q 11.716826025498047 0.401598 11.751291525498047 0.39785175000000006 Q 11.785757025498047 0.3941055000000001 11.818724025498048 0.3866130000000001 L 11.818724025498048 1.0354635 Q 11.818724025498048 1.0984005000000001 11.844947775498047 1.120878 Q 11.871171525498047 1.1433555000000002 11.932610025498047 1.1433555000000002 L 11.932610025498047 1.174824 Q 11.907135525498047 1.1733255 11.855437275498048 1.17107775 Q 11.803739025498047 1.16883 11.751291525498047 1.16883 Q 11.700342525498048 1.16883 11.647895025498046 1.17107775 Q 11.595447525498047 1.1733255 11.569973025498047 1.174824 L 11.569973025498047 1.1433555000000002 Q 11.631411525498047 1.1433555000000002 11.657635275498047 1.120878 Q 11.683859025498046 1.0984005000000001 11.683859025498046 1.0354635 L 11.683859025498046 0.5664330000000001 Q 11.683859025498046 0.49900050000000007 11.659883025498047 0.46678275 Q 11.635907025498048 0.4345650000000001 11.569973025498047 0.4345650000000001 L 11.328714525498047 0.4345650000000001 L 11.328714525498047 1.0354635 Q 11.328714525498047 1.0998990000000002 11.363180025498046 1.1216272500000002 Q 11.397645525498048 1.1433555000000002 11.457585525498047 1.1433555000000002 L 11.457585525498047 1.174824 Q 11.427615525498046 1.1733255 11.372920275498046 1.17107775 Q 11.318225025498046 1.16883 11.261282025498048 1.16883 Q 11.205837525498048 1.16883 11.155637775498047 1.17107775 Q 11.105438025498048 1.1733255 11.079963525498046 1.174824 L 11.079963525498046 1.1433555000000002 Q 11.141402025498047 1.1433555000000002 11.167625775498047 1.120878 Q 11.193849525498047 1.0984005000000001 11.193849525498047 1.0354635 L 11.193849525498047 0.4345650000000001 L 11.073969525498047 0.4345650000000001 L 11.073969525498047 0.40459500000000004 L 11.193849525498047 0.40459500000000004 Q 11.193849525498047 0.30869100000000005 11.218574775498046 0.23226750000000007 Q 11.243300025498048 0.1558440000000001 11.301741525498047 0.10039949999999997 Q 11.345198025498046 0.059940000000000104 11.414129025498047 0.03146850000000012 Q 11.483060025498046 0.0029970000000001384 11.581961025498046 0.0029970000000001384 M 11.023020525498048 0.06293700000000002 Q 11.108435025498046 0.06293700000000002 11.169124275498048 0.09515475000000007 Q 11.229813525498047 0.1273725000000001 11.267276025498047 0.19030950000000002 L 11.246297025498047 0.206793 Q 11.217825525498046 0.1558440000000001 11.163879525498047 0.12287700000000013 Q 11.109933525498047 0.08991000000000016 11.041002525498048 0.08991000000000016 Q 10.949594025498048 0.08991000000000016 10.898645025498046 0.14610374999999998 Q 10.847696025498047 0.20229750000000002 10.847696025498047 0.32817150000000006 L 10.847696025498047 0.40459500000000004 L 11.073969525498047 0.40459500000000004 L 11.073969525498047 0.4345650000000001 L 10.847696025498047 0.4345650000000001 L 10.847696025498047 1.0354635 Q 10.847696025498047 1.0984005000000001 10.873919775498047 1.120878 Q 10.900143525498047 1.1433555000000002 10.961582025498046 1.1433555000000002 L 10.961582025498046 1.174824 Q 10.936107525498047 1.1733255 10.885158525498047 1.17107775 Q 10.834209525498046 1.16883 10.781762025498047 1.16883 Q 10.730813025498048 1.16883 10.677616275498046 1.17107775 Q 10.624419525498046 1.1733255 10.598945025498047 1.174824 L 10.598945025498047 1.1433555000000002 Q 10.660383525498046 1.1433555000000002 10.686607275498046 1.120878 Q 10.712831025498048 1.0984005000000001 10.712831025498048 1.0354635 L 10.712831025498048 0.4345650000000001 L 10.592951025498047 0.4345650000000001 L 10.592951025498047 0.40459500000000004 L 10.712831025498048 0.40459500000000004 Q 10.712831025498048 0.32067900000000005 10.732311525498046 0.26073900000000005 Q 10.751792025498046 0.20079900000000006 10.786257525498048 0.16033950000000008 Q 10.825218525498046 0.11688300000000007 10.885907775498048 0.08991000000000016 Q 10.946597025498047 0.06293700000000002 11.023020525498048 0.06293700000000002 M 12.476725267939452 0.3821175000000001 Q 12.524677267939452 0.3821175000000001 12.569632267939452 0.3941055000000001 Q 12.614587267939452 0.4060935000000001 12.650551267939452 0.4300695000000001 Q 12.685016767939452 0.45254700000000003 12.702998767939452 0.48176775000000005 Q 12.720980767939453 0.5109885000000001 12.720980767939453 0.5454540000000001 Q 12.720980767939453 0.5859135000000001 12.698503267939452 0.6076417500000001 Q 12.676025767939452 0.6293700000000001 12.641560267939452 0.6293700000000001 Q 12.608593267939453 0.6293700000000001 12.583868017939453 0.6098895000000001 Q 12.559142767939452 0.5904090000000001 12.559142767939452 0.5544450000000001 Q 12.559142767939452 0.5199795 12.577874017939452 0.49900050000000007 Q 12.596605267939452 0.4780215000000001 12.622079767939452 0.47202750000000004 Q 12.607094767939452 0.4450545 12.568883017939452 0.4270725000000001 Q 12.530671267939452 0.4090905 12.487214767939452 0.4090905 Q 12.449752267939452 0.4090905 12.412289767939452 0.4270725000000001 Q 12.374827267939452 0.4450545 12.343358767939453 0.48626325000000004 Q 12.311890267939452 0.527472 12.292409767939452 0.5986507500000001 Q 12.272929267939453 0.6698295000000001 12.272929267939453 0.7762230000000001 Q 12.272929267939453 0.9080910000000001 12.302899267939452 0.986013 Q 12.332869267939452 1.063935 12.381570517939453 1.0976512500000002 Q 12.430271767939452 1.1313675 12.488713267939453 1.1313675 Q 12.527674267939453 1.1313675 12.568133767939452 1.1163825 Q 12.608593267939453 1.1013975 12.644557267939453 1.0676812500000001 Q 12.680521267939453 1.033965 12.705995767939452 0.9770220000000001 L 12.734467267939452 0.9875115000000001 Q 12.719482267939453 1.0354635 12.685016767939452 1.08416475 Q 12.650551267939452 1.1328660000000002 12.595106767939452 1.1643345 Q 12.539662267939452 1.1958030000000002 12.458743267939452 1.1958030000000002 Q 12.365836267939452 1.1958030000000002 12.290911267939453 1.1478510000000002 Q 12.215986267939453 1.0998990000000002 12.171780517939453 1.0107382500000002 Q 12.127574767939452 0.9215775000000002 12.127574767939452 0.7987005 Q 12.127574767939452 0.6758235000000001 12.171780517939453 0.58216725 Q 12.215986267939453 0.48851100000000003 12.295406767939452 0.43531425 Q 12.374827267939452 0.3821175000000001 12.476725267939452 0.3821175000000001 M 13.287583022343748 0.3821175000000001 Q 13.419451022343749 0.3821175000000001 13.493626772343749 0.46228725000000004 Q 13.567802522343749 0.5424570000000001 13.567802522343749 0.7117875 L 13.03883202234375 0.7117875 L 13.037333522343749 0.683316 L 13.423946522343748 0.683316 Q 13.426943522343748 0.6098895000000001 13.411958522343749 0.5477017500000001 Q 13.396973522343748 0.4855140000000001 13.364755772343749 0.44805150000000005 Q 13.332538022343748 0.4105890000000001 13.281589022343748 0.4105890000000001 Q 13.21265802234375 0.4105890000000001 13.159461272343748 0.47952000000000006 Q 13.106264522343748 0.548451 13.095775022343748 0.6983010000000001 L 13.100270522343749 0.7042950000000001 Q 13.097273522343748 0.7267725 13.095775022343748 0.7537455000000001 Q 13.09427652234375 0.7807185000000001 13.09427652234375 0.8076915 Q 13.09427652234375 0.9095895 13.127243522343749 0.9830160000000001 Q 13.160210522343748 1.0564425000000002 13.21340727234375 1.09465425 Q 13.26660402234375 1.1328660000000002 13.323547022343748 1.1328660000000002 Q 13.36850202234375 1.1328660000000002 13.408961522343748 1.11863025 Q 13.44942102234375 1.1043945000000002 13.483886522343749 1.0714275 Q 13.518352022343748 1.0384605 13.543826522343748 0.9830160000000001 L 13.573796522343748 0.9950040000000001 Q 13.557313022343749 1.0444545 13.519850522343749 1.090908 Q 13.482388022343748 1.1373615000000001 13.425445022343748 1.16658225 Q 13.36850202234375 1.1958030000000002 13.293577022343749 1.1958030000000002 Q 13.18568502234375 1.1958030000000002 13.108512272343749 1.1463525 Q 13.031339522343748 1.096902 12.990130772343749 1.00923975 Q 12.948922022343748 0.9215775000000002 12.948922022343748 0.8076915 Q 12.948922022343748 0.6758235000000001 12.990880022343749 0.5806687500000001 Q 13.032838022343748 0.4855140000000001 13.109261522343749 0.43381575000000006 Q 13.18568502234375 0.3821175000000001 13.287583022343748 0.3821175000000001 M 14.58106556923828 0.09740250000000006 Q 14.65599056923828 0.09740250000000006 14.694951569238281 0.11463525000000008 Q 14.73391256923828 0.1318680000000001 14.76388256923828 0.15284699999999996 Q 14.78186456923828 0.1633365 14.79310331923828 0.16858125000000013 Q 14.804342069238281 0.17382600000000004 14.81483156923828 0.17382600000000004 Q 14.82981656923828 0.17382600000000004 14.83655981923828 0.15734250000000016 Q 14.84330306923828 0.14085900000000007 14.84779856923828 0.1078920000000001 L 14.88226406923828 0.1078920000000001 Q 14.88076556923828 0.13336650000000017 14.87851781923828 0.16858125000000013 Q 14.87627006923828 0.2037960000000001 14.87552081923828 0.2614882500000001 Q 14.87477156923828 0.3191805000000001 14.87477156923828 0.4135860000000001 L 14.84030606923828 0.4135860000000001 Q 14.83581056923828 0.341658 14.80883756923828 0.2757240000000001 Q 14.78186456923828 0.20979000000000003 14.73016631923828 0.16783199999999998 Q 14.67846806923828 0.12587400000000004 14.594552069238281 0.12587400000000004 Q 14.51513156923828 0.12587400000000004 14.46343331923828 0.17382600000000004 Q 14.411735069238281 0.22177800000000003 14.411735069238281 0.2997000000000001 Q 14.411735069238281 0.3671325000000001 14.44620056923828 0.4128367500000001 Q 14.48066606923828 0.4585410000000001 14.53835831923828 0.4952542500000001 Q 14.59605056923828 0.5319675 14.66348306923828 0.5739255000000001 Q 14.74140506923828 0.6218775000000001 14.80209431923828 0.66908025 Q 14.86278356923828 0.716283 14.89799831923828 0.7732260000000001 Q 14.933213069238281 0.8301690000000002 14.933213069238281 0.9110880000000001 Q 14.933213069238281 1.006992 14.88975656923828 1.0699290000000001 Q 14.84630006923828 1.1328660000000002 14.77437206923828 1.1643345 Q 14.70244406923828 1.1958030000000002 14.61553106923828 1.1958030000000002 Q 14.53611056923828 1.1958030000000002 14.48965706923828 1.177821 Q 14.44320356923828 1.159839 14.41023656923828 1.1403585 Q 14.37726956923828 1.1193795000000002 14.35928756923828 1.1193795000000002 Q 14.34430256923828 1.1193795000000002 14.33755931923828 1.135863 Q 14.33081606923828 1.1523465000000002 14.32632056923828 1.1853135000000001 L 14.29185506923828 1.1853135000000001 Q 14.29485206923828 1.153845 14.29560131923828 1.1111377500000001 Q 14.29635056923828 1.0684305 14.29709981923828 0.9994995000000001 Q 14.29784906923828 0.9305685000000001 14.29784906923828 0.8256735000000001 L 14.33231456923828 0.8256735000000001 Q 14.338308569238281 0.9155835000000001 14.366030819238281 0.9935055000000002 Q 14.393753069238281 1.0714275 14.45144531923828 1.11863025 Q 14.50913756923828 1.1658330000000001 14.60504156923828 1.1658330000000001 Q 14.65449206923828 1.1658330000000001 14.69869781923828 1.1456032500000002 Q 14.74290356923828 1.1253735 14.77137506923828 1.08116775 Q 14.79984656923828 1.0369620000000002 14.79984656923828 0.9665325 Q 14.79984656923828 0.9050940000000001 14.77062581923828 0.8593897500000001 Q 14.74140506923828 0.8136855000000001 14.68895756923828 0.7739752500000001 Q 14.63651006923828 0.7342650000000001 14.56608056923828 0.692307 Q 14.49565106923828 0.6488505000000001 14.43421256923828 0.6038955 Q 14.37277406923828 0.5589405000000001 14.33606081923828 0.4997497500000001 Q 14.29934756923828 0.44055900000000003 14.29934756923828 0.35664300000000004 Q 14.29934756923828 0.26823150000000007 14.339057819238281 0.21053925000000007 Q 14.37876806923828 0.15284699999999996 14.44320356923828 0.12512475000000012 Q 14.50763906923828 0.09740250000000006 14.58106556923828 0.09740250000000006 M 15.507240508212888 0.3821175000000001 Q 15.639108508212889 0.3821175000000001 15.713284258212889 0.46228725000000004 Q 15.78746000821289 0.5424570000000001 15.78746000821289 0.7117875 L 15.25848950821289 0.7117875 L 15.25699100821289 0.683316 L 15.64360400821289 0.683316 Q 15.646601008212889 0.6098895000000001 15.63161600821289 0.5477017500000001 Q 15.616631008212888 0.4855140000000001 15.584413258212889 0.44805150000000005 Q 15.55219550821289 0.4105890000000001 15.501246508212889 0.4105890000000001 Q 15.43231550821289 0.4105890000000001 15.379118758212888 0.47952000000000006 Q 15.325922008212888 0.548451 15.315432508212888 0.6983010000000001 L 15.319928008212889 0.7042950000000001 Q 15.316931008212888 0.7267725 15.315432508212888 0.7537455000000001 Q 15.31393400821289 0.7807185000000001 15.31393400821289 0.8076915 Q 15.31393400821289 0.9095895 15.346901008212889 0.9830160000000001 Q 15.379868008212888 1.0564425000000002 15.43306475821289 1.09465425 Q 15.48626150821289 1.1328660000000002 15.543204508212888 1.1328660000000002 Q 15.58815950821289 1.1328660000000002 15.628619008212889 1.11863025 Q 15.66907850821289 1.1043945000000002 15.703544008212889 1.0714275 Q 15.738009508212889 1.0384605 15.763484008212888 0.9830160000000001 L 15.793454008212889 0.9950040000000001 Q 15.776970508212889 1.0444545 15.739508008212889 1.090908 Q 15.702045508212889 1.1373615000000001 15.645102508212888 1.16658225 Q 15.58815950821289 1.1958030000000002 15.51323450821289 1.1958030000000002 Q 15.40534250821289 1.1958030000000002 15.328169758212889 1.1463525 Q 15.250997008212888 1.096902 15.209788258212889 1.00923975 Q 15.168579508212888 0.9215775000000002 15.168579508212888 0.8076915 Q 15.168579508212888 0.6758235000000001 15.210537508212889 0.5806687500000001 Q 15.252495508212888 0.4855140000000001 15.328919008212889 0.43381575000000006 Q 15.40534250821289 0.3821175000000001 15.507240508212888 0.3821175000000001 M 16.46039356901367 0.3821175000000001 Q 16.50085306901367 0.3821175000000001 16.53157231901367 0.3986010000000001 Q 16.56229156901367 0.4150845000000001 16.57952431901367 0.44130825000000007 Q 16.59675706901367 0.46753200000000006 16.59675706901367 0.500499 Q 16.59675706901367 0.5379615000000001 16.57353031901367 0.5664330000000001 Q 16.55030356901367 0.5949045000000001 16.51134256901367 0.5949045000000001 Q 16.479874069013672 0.5949045000000001 16.45589806901367 0.5746747500000001 Q 16.43192206901367 0.5544450000000001 16.43192206901367 0.5169825000000001 Q 16.43192206901367 0.48851100000000003 16.44765631901367 0.4682812500000001 Q 16.46339056901367 0.44805150000000005 16.48287106901367 0.43606350000000005 Q 16.47238156901367 0.4210785 16.45140256901367 0.4210785 Q 16.40494906901367 0.4210785 16.36598806901367 0.4488007500000001 Q 16.32702706901367 0.47652300000000003 16.30005406901367 0.5199795 Q 16.27308106901367 0.563436 16.25809606901367 0.6121372500000001 Q 16.243111069013672 0.6608385000000001 16.243111069013672 0.7027965 L 16.243111069013672 1.0204785 Q 16.243111069013672 1.0939050000000001 16.28581831901367 1.11863025 Q 16.32852556901367 1.1433555000000002 16.40195206901367 1.1433555000000002 L 16.40195206901367 1.174824 Q 16.36748656901367 1.1733255 16.30454956901367 1.17107775 Q 16.24161256901367 1.16883 16.17118306901367 1.16883 Q 16.12023406901367 1.16883 16.07003431901367 1.17107775 Q 16.01983456901367 1.1733255 15.99436006901367 1.174824 L 15.99436006901367 1.1433555000000002 Q 16.05579856901367 1.1433555000000002 16.08202231901367 1.120878 Q 16.10824606901367 1.0984005000000001 16.10824606901367 1.0354635 L 16.10824606901367 0.5664330000000001 Q 16.10824606901367 0.49900050000000007 16.08427006901367 0.46678275 Q 16.060294069013672 0.4345650000000001 15.99436006901367 0.4345650000000001 L 15.99436006901367 0.4030965000000001 Q 16.04231206901367 0.40759200000000007 16.08726706901367 0.40759200000000007 Q 16.13072356901367 0.40759200000000007 16.17043381901367 0.40234725000000005 Q 16.21014406901367 0.3971025 16.243111069013672 0.3866130000000001 L 16.243111069013672 0.5739255000000001 Q 16.25959456901367 0.5304690000000001 16.29031381901367 0.48626325000000004 Q 16.32103306901367 0.4420575000000001 16.36448956901367 0.41208750000000005 Q 16.40794606901367 0.3821175000000001 16.46039356901367 0.3821175000000001 M 17.439059909355468 0.4030965000000001 L 17.439059909355468 0.4330665 Q 17.41058840935547 0.43606350000000005 17.386612409355468 0.4585410000000001 Q 17.362636409355467 0.4810185 17.34165740935547 0.5379615000000001 L 17.09590340935547 1.1823165 Q 17.089909409355467 1.1823165 17.08391540935547 1.1823165 Q 17.07792140935547 1.1823165 17.070428909355467 1.1823165 L 16.794704909355467 0.5184810000000001 Q 16.77072890935547 0.46003950000000005 16.747502159355466 0.44730225 Q 16.724275409355467 0.4345650000000001 16.707791909355468 0.4345650000000001 L 16.707791909355468 0.4030965000000001 Q 16.73776190935547 0.40459500000000004 16.769979659355467 0.40684275000000003 Q 16.80219740935547 0.4090905 16.83965990935547 0.4090905 Q 16.886113409355467 0.4090905 16.937811659355468 0.40759200000000007 Q 16.98950990935547 0.4060935000000001 17.034464909355467 0.4030965000000001 L 17.034464909355467 0.4345650000000001 Q 16.997002409355467 0.4345650000000001 16.967781659355467 0.4398097500000001 Q 16.93856090935547 0.4450545 16.930319159355466 0.4690305 Q 16.922077409355467 0.4930065 16.944554909355467 0.551448 L 17.13186740935547 1.0144845 L 17.122876409355467 1.0219770000000001 L 17.293705409355468 0.5739255000000001 Q 17.313185909355468 0.524475 17.30943965935547 0.4952542500000001 Q 17.305693409355467 0.4660335000000001 17.279469659355467 0.4510485000000001 Q 17.253245909355467 0.43606350000000005 17.199299909355467 0.4330665 L 17.199299909355467 0.4030965000000001 Q 17.22627290935547 0.40459500000000004 17.24575340935547 0.4053442500000001 Q 17.26523390935547 0.4060935000000001 17.283965159355468 0.40684275000000003 Q 17.30269640935547 0.40759200000000007 17.325173909355467 0.40759200000000007 Q 17.359639409355466 0.40759200000000007 17.38736165935547 0.4060935000000001 Q 17.415083909355467 0.40459500000000004 17.439059909355468 0.4030965000000001 M 17.750903261660156 0.028471499999999983 Q 17.789864261660156 0.028471499999999983 17.81833576166016 0.056942999999999966 Q 17.846807261660157 0.08541449999999995 17.846807261660157 0.12437549999999997 Q 17.846807261660157 0.1633365 17.81833576166016 0.1918080000000001 Q 17.789864261660156 0.22027950000000007 17.750903261660156 0.22027950000000007 Q 17.711942261660155 0.22027950000000007 17.683470761660157 0.1918080000000001 Q 17.65499926166016 0.1633365 17.65499926166016 0.12437549999999997 Q 17.65499926166016 0.08541449999999995 17.683470761660157 0.056942999999999966 Q 17.711942261660155 0.028471499999999983 17.750903261660156 0.028471499999999983 M 17.828825261660157 0.3866130000000001 L 17.828825261660157 1.0354635 Q 17.828825261660157 1.0984005000000001 17.855049011660157 1.120878 Q 17.881272761660156 1.1433555000000002 17.942711261660158 1.1433555000000002 L 17.942711261660158 1.174824 Q 17.917236761660156 1.1733255 17.865538511660155 1.17107775 Q 17.813840261660157 1.16883 17.761392761660158 1.16883 Q 17.710443761660155 1.16883 17.657996261660156 1.17107775 Q 17.605548761660156 1.1733255 17.580074261660158 1.174824 L 17.580074261660158 1.1433555000000002 Q 17.641512761660156 1.1433555000000002 17.667736511660156 1.120878 Q 17.693960261660155 1.0984005000000001 17.693960261660155 1.0354635 L 17.693960261660155 0.5664330000000001 Q 17.693960261660155 0.49900050000000007 17.669984261660158 0.46678275 Q 17.646008261660157 0.4345650000000001 17.580074261660158 0.4345650000000001 L 17.580074261660158 0.4030965000000001 Q 17.628026261660157 0.40759200000000007 17.67298126166016 0.40759200000000007 Q 17.716437761660156 0.40759200000000007 17.756148011660155 0.40234725000000005 Q 17.795858261660157 0.3971025 17.828825261660157 0.3866130000000001 M 18.486846259716796 0.3821175000000001 Q 18.534798259716794 0.3821175000000001 18.579753259716796 0.3941055000000001 Q 18.624708259716797 0.4060935000000001 18.660672259716797 0.4300695000000001 Q 18.695137759716797 0.45254700000000003 18.713119759716797 0.48176775000000005 Q 18.731101759716797 0.5109885000000001 18.731101759716797 0.5454540000000001 Q 18.731101759716797 0.5859135000000001 18.708624259716796 0.6076417500000001 Q 18.686146759716795 0.6293700000000001 18.651681259716796 0.6293700000000001 Q 18.618714259716796 0.6293700000000001 18.593989009716797 0.6098895000000001 Q 18.569263759716797 0.5904090000000001 18.569263759716797 0.5544450000000001 Q 18.569263759716797 0.5199795 18.587995009716796 0.49900050000000007 Q 18.606726259716798 0.4780215000000001 18.632200759716795 0.47202750000000004 Q 18.617215759716796 0.4450545 18.579004009716797 0.4270725000000001 Q 18.540792259716795 0.4090905 18.497335759716798 0.4090905 Q 18.459873259716797 0.4090905 18.422410759716797 0.4270725000000001 Q 18.384948259716797 0.4450545 18.353479759716794 0.48626325000000004 Q 18.322011259716795 0.527472 18.302530759716795 0.5986507500000001 Q 18.283050259716795 0.6698295000000001 18.283050259716795 0.7762230000000001 Q 18.283050259716795 0.9080910000000001 18.313020259716797 0.986013 Q 18.342990259716796 1.063935 18.391691509716797 1.0976512500000002 Q 18.440392759716797 1.1313675 18.498834259716794 1.1313675 Q 18.537795259716795 1.1313675 18.578254759716796 1.1163825 Q 18.618714259716796 1.1013975 18.654678259716796 1.0676812500000001 Q 18.690642259716796 1.033965 18.716116759716797 0.9770220000000001 L 18.744588259716796 0.9875115000000001 Q 18.729603259716797 1.0354635 18.695137759716797 1.08416475 Q 18.660672259716797 1.1328660000000002 18.605227759716797 1.1643345 Q 18.549783259716797 1.1958030000000002 18.468864259716796 1.1958030000000002 Q 18.375957259716795 1.1958030000000002 18.301032259716795 1.1478510000000002 Q 18.226107259716795 1.0998990000000002 18.181901509716795 1.0107382500000002 Q 18.137695759716795 0.9215775000000002 18.137695759716795 0.7987005 Q 18.137695759716795 0.6758235000000001 18.181901509716795 0.58216725 Q 18.226107259716795 0.48851100000000003 18.305527759716796 0.43531425 Q 18.384948259716797 0.3821175000000001 18.486846259716796 0.3821175000000001 M 19.297704014121095 0.3821175000000001 Q 19.429572014121092 0.3821175000000001 19.503747764121094 0.46228725000000004 Q 19.577923514121093 0.5424570000000001 19.577923514121093 0.7117875 L 19.048953014121093 0.7117875 L 19.047454514121092 0.683316 L 19.434067514121093 0.683316 Q 19.437064514121094 0.6098895000000001 19.422079514121094 0.5477017500000001 Q 19.407094514121095 0.4855140000000001 19.374876764121094 0.44805150000000005 Q 19.342659014121093 0.4105890000000001 19.291710014121094 0.4105890000000001 Q 19.222779014121095 0.4105890000000001 19.169582264121093 0.47952000000000006 Q 19.116385514121095 0.548451 19.105896014121093 0.6983010000000001 L 19.110391514121094 0.7042950000000001 Q 19.107394514121093 0.7267725 19.105896014121093 0.7537455000000001 Q 19.104397514121093 0.7807185000000001 19.104397514121093 0.8076915 Q 19.104397514121093 0.9095895 19.137364514121092 0.9830160000000001 Q 19.170331514121095 1.0564425000000002 19.223528264121093 1.09465425 Q 19.276725014121094 1.1328660000000002 19.333668014121095 1.1328660000000002 Q 19.378623014121093 1.1328660000000002 19.419082514121094 1.11863025 Q 19.459542014121094 1.1043945000000002 19.494007514121094 1.0714275 Q 19.528473014121094 1.0384605 19.553947514121095 0.9830160000000001 L 19.583917514121094 0.9950040000000001 Q 19.567434014121094 1.0444545 19.529971514121094 1.090908 Q 19.492509014121094 1.1373615000000001 19.435566014121093 1.16658225 Q 19.378623014121093 1.1958030000000002 19.303698014121093 1.1958030000000002 Q 19.195806014121093 1.1958030000000002 19.118633264121094 1.1463525 Q 19.041460514121095 1.096902 19.000251764121092 1.00923975 Q 18.959043014121093 0.9215775000000002 18.959043014121093 0.8076915 Q 18.959043014121093 0.6758235000000001 19.001001014121094 0.5806687500000001 Q 19.042959014121095 0.4855140000000001 19.119382514121092 0.43381575000000006 Q 19.195806014121093 0.3821175000000001 19.297704014121095 0.3821175000000001 M 20.053055074921875 0.3821175000000001 Q 20.112995074921876 0.3821175000000001 20.154953074921874 0.401598 Q 20.196911074921875 0.4210785 20.216391574921875 0.4375620000000001 Q 20.265842074921874 0.4780215000000001 20.276331574921876 0.38361600000000007 L 20.310797074921876 0.38361600000000007 Q 20.307800074921875 0.4255740000000001 20.306301574921875 0.4832662500000001 Q 20.304803074921875 0.5409585000000001 20.304803074921875 0.6383610000000001 L 20.270337574921875 0.6383610000000001 Q 20.261346574921877 0.5829165000000001 20.239618324921874 0.5304690000000001 Q 20.217890074921876 0.4780215000000001 20.175932074921874 0.4443052500000001 Q 20.133974074921877 0.4105890000000001 20.066541574921875 0.4105890000000001 Q 20.014094074921875 0.4105890000000001 19.978879324921877 0.4398097500000001 Q 19.943664574921875 0.4690305 19.943664574921875 0.5259735000000001 Q 19.943664574921875 0.5709285000000001 19.970637574921874 0.6031462500000001 Q 19.997610574921875 0.635364 20.041067074921877 0.6630862500000001 Q 20.084523574921874 0.6908085 20.135472574921874 0.7237755000000001 Q 20.192415574921874 0.7597395 20.238869074921876 0.7972020000000001 Q 20.285322574921874 0.8346645000000001 20.313044824921874 0.8796195 Q 20.340767074921875 0.9245745000000001 20.340767074921875 0.986013 Q 20.340767074921875 1.054944 20.304803074921875 1.1013975 Q 20.268839074921875 1.1478510000000002 20.211146824921876 1.1718270000000002 Q 20.153454574921874 1.1958030000000002 20.084523574921874 1.1958030000000002 Q 20.051556574921875 1.1958030000000002 20.022335824921875 1.19055825 Q 19.993115074921874 1.1853135000000001 19.966142074921876 1.174824 Q 19.951157074921877 1.1673315000000002 19.935422824921876 1.1568420000000001 Q 19.919688574921874 1.1463525 19.904703574921875 1.1343645 Q 19.889718574921876 1.1223765 19.877730574921877 1.1351137500000001 Q 19.865742574921875 1.1478510000000002 19.859748574921877 1.1853135000000001 L 19.825283074921874 1.1853135000000001 Q 19.828280074921874 1.1373615000000001 19.829778574921875 1.0684305 Q 19.831277074921875 0.9994995000000001 19.831277074921875 0.8856135 L 19.865742574921875 0.8856135 Q 19.876232074921877 0.9695295 19.895712574921877 1.0324665000000002 Q 19.915193074921874 1.0954035000000002 19.957151074921875 1.1306182500000002 Q 19.999109074921876 1.1658330000000001 20.074034074921876 1.1658330000000001 Q 20.104004074921875 1.1658330000000001 20.134723324921875 1.1523465000000002 Q 20.165442574921876 1.13886 20.186421574921876 1.1073915 Q 20.207400574921877 1.0759230000000002 20.207400574921877 1.0234755 Q 20.207400574921877 0.9575415 20.159448574921875 0.9155835000000001 Q 20.111496574921876 0.8736255 20.038070074921876 0.827172 Q 19.984124074921876 0.7927065000000001 19.936921324921876 0.758241 Q 19.889718574921876 0.7237755000000001 19.860497824921875 0.6803190000000001 Q 19.831277074921875 0.6368625000000001 19.831277074921875 0.575424 Q 19.831277074921875 0.5079915 19.861996324921876 0.46528425000000007 Q 19.892715574921876 0.4225770000000001 19.943664574921875 0.40234725000000005 Q 19.994613574921875 0.3821175000000001 20.053055074921875 0.3821175000000001" fill="#fffcf7" fill-rule="nonzero"></path></g><g></g></g><defs><clipPath id="SvgjsClipPath104617"><path d=" M 4.231740216180054 -15.373020174347467 h 11.947748336897707 v 14.698020174347466 h -11.947748336897707 Z"></path></clipPath><clipPath id="SvgjsClipPath1046155c0ef4f0-8c13-4d32-b671-ea7a5c78bf2a"><path d=" M 4.231740216180054 -15.373020174347467 L 16.17948855307776 -15.373020174347467 L 16.17948855307776 -0.6750000000000007 L 4.231740216180054 -0.6750000000000007 Z"></path></clipPath></defs></svg>